%TF.GenerationSoftware,Flux,Pcbnew,7.0.11-7.0.11~ubuntu20.04.1*%
%TF.CreationDate,2024-05-09T22:56:52+00:00*%
%TF.ProjectId,input,696e7075-742e-46b6-9963-61645f706362,rev?*%
%TF.SameCoordinates,Original*%
%TF.FileFunction,Legend,Bot*%
%TF.FilePolarity,Positive*%
%FSLAX46Y46*%
G04 Gerber Fmt 4.6, Leading zero omitted, Abs format (unit mm)*
G04 Filename: desalinator*
G04 Build it with Flux! Visit our site at: https://www.flux.ai (PCBNEW 7.0.11-7.0.11~ubuntu20.04.1) date 2024-05-09 22:56:52*
%MOMM*%
%LPD*%
G01*
G04 APERTURE LIST*
%ADD10C,0.095000*%
%ADD11C,0.285000*%
%ADD12C,0.171000*%
%ADD13C,0.237500*%
G04 APERTURE END LIST*
D10*
X141719Y21495540D02*
X27433Y21457444D01*
X27433Y21457444D02*
X-163042Y21457444D01*
X-163042Y21457444D02*
X-239233Y21495540D01*
X-239233Y21495540D02*
X-277328Y21533635D01*
X-277328Y21533635D02*
X-315423Y21609825D01*
X-315423Y21609825D02*
X-315423Y21686016D01*
X-315423Y21686016D02*
X-277328Y21762206D01*
X-277328Y21762206D02*
X-239233Y21800301D01*
X-239233Y21800301D02*
X-163042Y21838397D01*
X-163042Y21838397D02*
X-10661Y21876492D01*
X-10661Y21876492D02*
X65528Y21914587D01*
X65528Y21914587D02*
X103623Y21952682D01*
X103623Y21952682D02*
X141719Y22028873D01*
X141719Y22028873D02*
X141719Y22105063D01*
X141719Y22105063D02*
X103623Y22181254D01*
X103623Y22181254D02*
X65528Y22219349D01*
X65528Y22219349D02*
X-10661Y22257444D01*
X-10661Y22257444D02*
X-201138Y22257444D01*
X-201138Y22257444D02*
X-315423Y22219349D01*
X-810662Y22257444D02*
X-963043Y22257444D01*
X-963043Y22257444D02*
X-1039233Y22219349D01*
X-1039233Y22219349D02*
X-1115424Y22143159D01*
X-1115424Y22143159D02*
X-1153519Y21990778D01*
X-1153519Y21990778D02*
X-1153519Y21724111D01*
X-1153519Y21724111D02*
X-1115424Y21571730D01*
X-1115424Y21571730D02*
X-1039233Y21495540D01*
X-1039233Y21495540D02*
X-963043Y21457444D01*
X-963043Y21457444D02*
X-810662Y21457444D01*
X-810662Y21457444D02*
X-734471Y21495540D01*
X-734471Y21495540D02*
X-658281Y21571730D01*
X-658281Y21571730D02*
X-620185Y21724111D01*
X-620185Y21724111D02*
X-620185Y21990778D01*
X-620185Y21990778D02*
X-658281Y22143159D01*
X-658281Y22143159D02*
X-734471Y22219349D01*
X-734471Y22219349D02*
X-810662Y22257444D01*
X-1877328Y21457444D02*
X-1496376Y21457444D01*
X-1496376Y21457444D02*
X-1496376Y22257444D01*
X-2105899Y21686016D02*
X-2486852Y21686016D01*
X-2029709Y21457444D02*
X-2296376Y22257444D01*
X-2296376Y22257444D02*
X-2563042Y21457444D01*
X-3286852Y21457444D02*
X-3020185Y21838397D01*
X-2829709Y21457444D02*
X-2829709Y22257444D01*
X-2829709Y22257444D02*
X-3134471Y22257444D01*
X-3134471Y22257444D02*
X-3210661Y22219349D01*
X-3210661Y22219349D02*
X-3248756Y22181254D01*
X-3248756Y22181254D02*
X-3286852Y22105063D01*
X-3286852Y22105063D02*
X-3286852Y21990778D01*
X-3286852Y21990778D02*
X-3248756Y21914587D01*
X-3248756Y21914587D02*
X-3210661Y21876492D01*
X-3210661Y21876492D02*
X-3134471Y21838397D01*
X-3134471Y21838397D02*
X-2829709Y21838397D01*
X-4315423Y21533635D02*
X-4277327Y21495540D01*
X-4277327Y21495540D02*
X-4163042Y21457444D01*
X-4163042Y21457444D02*
X-4086851Y21457444D01*
X-4086851Y21457444D02*
X-3972565Y21495540D01*
X-3972565Y21495540D02*
X-3896375Y21571730D01*
X-3896375Y21571730D02*
X-3858280Y21647920D01*
X-3858280Y21647920D02*
X-3820184Y21800301D01*
X-3820184Y21800301D02*
X-3820184Y21914587D01*
X-3820184Y21914587D02*
X-3858280Y22066968D01*
X-3858280Y22066968D02*
X-3896375Y22143159D01*
X-3896375Y22143159D02*
X-3972565Y22219349D01*
X-3972565Y22219349D02*
X-4086851Y22257444D01*
X-4086851Y22257444D02*
X-4163042Y22257444D01*
X-4163042Y22257444D02*
X-4277327Y22219349D01*
X-4277327Y22219349D02*
X-4315423Y22181254D01*
X-4658280Y21457444D02*
X-4658280Y22257444D01*
X-4658280Y21876492D02*
X-5115423Y21876492D01*
X-5115423Y21457444D02*
X-5115423Y22257444D01*
X-5458279Y21686016D02*
X-5839232Y21686016D01*
X-5382089Y21457444D02*
X-5648756Y22257444D01*
X-5648756Y22257444D02*
X-5915422Y21457444D01*
X-6639232Y21457444D02*
X-6372565Y21838397D01*
X-6182089Y21457444D02*
X-6182089Y22257444D01*
X-6182089Y22257444D02*
X-6486851Y22257444D01*
X-6486851Y22257444D02*
X-6563041Y22219349D01*
X-6563041Y22219349D02*
X-6601136Y22181254D01*
X-6601136Y22181254D02*
X-6639232Y22105063D01*
X-6639232Y22105063D02*
X-6639232Y21990778D01*
X-6639232Y21990778D02*
X-6601136Y21914587D01*
X-6601136Y21914587D02*
X-6563041Y21876492D01*
X-6563041Y21876492D02*
X-6486851Y21838397D01*
X-6486851Y21838397D02*
X-6182089Y21838397D01*
X-7401136Y22219349D02*
X-7324946Y22257444D01*
X-7324946Y22257444D02*
X-7210660Y22257444D01*
X-7210660Y22257444D02*
X-7096374Y22219349D01*
X-7096374Y22219349D02*
X-7020184Y22143159D01*
X-7020184Y22143159D02*
X-6982089Y22066968D01*
X-6982089Y22066968D02*
X-6943993Y21914587D01*
X-6943993Y21914587D02*
X-6943993Y21800301D01*
X-6943993Y21800301D02*
X-6982089Y21647920D01*
X-6982089Y21647920D02*
X-7020184Y21571730D01*
X-7020184Y21571730D02*
X-7096374Y21495540D01*
X-7096374Y21495540D02*
X-7210660Y21457444D01*
X-7210660Y21457444D02*
X-7286851Y21457444D01*
X-7286851Y21457444D02*
X-7401136Y21495540D01*
X-7401136Y21495540D02*
X-7439232Y21533635D01*
X-7439232Y21533635D02*
X-7439232Y21800301D01*
X-7439232Y21800301D02*
X-7286851Y21800301D01*
X-7782089Y21876492D02*
X-8048755Y21876492D01*
X-8163041Y21457444D02*
X-7782089Y21457444D01*
X-7782089Y21457444D02*
X-7782089Y22257444D01*
X-7782089Y22257444D02*
X-8163041Y22257444D01*
X-8963042Y21457444D02*
X-8696375Y21838397D01*
X-8505899Y21457444D02*
X-8505899Y22257444D01*
X-8505899Y22257444D02*
X-8810661Y22257444D01*
X-8810661Y22257444D02*
X-8886851Y22219349D01*
X-8886851Y22219349D02*
X-8924946Y22181254D01*
X-8924946Y22181254D02*
X-8963042Y22105063D01*
X-8963042Y22105063D02*
X-8963042Y21990778D01*
X-8963042Y21990778D02*
X-8924946Y21914587D01*
X-8924946Y21914587D02*
X-8886851Y21876492D01*
X-8886851Y21876492D02*
X-8810661Y21838397D01*
X-8810661Y21838397D02*
X-8505899Y21838397D01*
D11*
X69391157Y-21668051D02*
X68248300Y-21668051D01*
X69619728Y-22353765D02*
X68819728Y-19953765D01*
X68819728Y-19953765D02*
X68019728Y-22353765D01*
X65848299Y-22353765D02*
X66648299Y-21210908D01*
X67219728Y-22353765D02*
X67219728Y-19953765D01*
X67219728Y-19953765D02*
X66305442Y-19953765D01*
X66305442Y-19953765D02*
X66076871Y-20068051D01*
X66076871Y-20068051D02*
X65962585Y-20182337D01*
X65962585Y-20182337D02*
X65848299Y-20410908D01*
X65848299Y-20410908D02*
X65848299Y-20753765D01*
X65848299Y-20753765D02*
X65962585Y-20982337D01*
X65962585Y-20982337D02*
X66076871Y-21096622D01*
X66076871Y-21096622D02*
X66305442Y-21210908D01*
X66305442Y-21210908D02*
X67219728Y-21210908D01*
X64819728Y-22353765D02*
X64819728Y-19953765D01*
X64819728Y-19953765D02*
X64248299Y-19953765D01*
X64248299Y-19953765D02*
X63905442Y-20068051D01*
X63905442Y-20068051D02*
X63676871Y-20296622D01*
X63676871Y-20296622D02*
X63562585Y-20525194D01*
X63562585Y-20525194D02*
X63448299Y-20982337D01*
X63448299Y-20982337D02*
X63448299Y-21325194D01*
X63448299Y-21325194D02*
X63562585Y-21782337D01*
X63562585Y-21782337D02*
X63676871Y-22010908D01*
X63676871Y-22010908D02*
X63905442Y-22239480D01*
X63905442Y-22239480D02*
X64248299Y-22353765D01*
X64248299Y-22353765D02*
X64819728Y-22353765D01*
X62419728Y-19953765D02*
X62419728Y-21896622D01*
X62419728Y-21896622D02*
X62305442Y-22125194D01*
X62305442Y-22125194D02*
X62191157Y-22239480D01*
X62191157Y-22239480D02*
X61962585Y-22353765D01*
X61962585Y-22353765D02*
X61505442Y-22353765D01*
X61505442Y-22353765D02*
X61276871Y-22239480D01*
X61276871Y-22239480D02*
X61162585Y-22125194D01*
X61162585Y-22125194D02*
X61048299Y-21896622D01*
X61048299Y-21896622D02*
X61048299Y-19953765D01*
X59905442Y-22353765D02*
X59905442Y-19953765D01*
X58762585Y-22353765D02*
X58762585Y-19953765D01*
X58762585Y-19953765D02*
X57391156Y-22353765D01*
X57391156Y-22353765D02*
X57391156Y-19953765D01*
X55791156Y-19953765D02*
X55334013Y-19953765D01*
X55334013Y-19953765D02*
X55105442Y-20068051D01*
X55105442Y-20068051D02*
X54876870Y-20296622D01*
X54876870Y-20296622D02*
X54762585Y-20753765D01*
X54762585Y-20753765D02*
X54762585Y-21553765D01*
X54762585Y-21553765D02*
X54876870Y-22010908D01*
X54876870Y-22010908D02*
X55105442Y-22239480D01*
X55105442Y-22239480D02*
X55334013Y-22353765D01*
X55334013Y-22353765D02*
X55791156Y-22353765D01*
X55791156Y-22353765D02*
X56019728Y-22239480D01*
X56019728Y-22239480D02*
X56248299Y-22010908D01*
X56248299Y-22010908D02*
X56362585Y-21553765D01*
X56362585Y-21553765D02*
X56362585Y-20753765D01*
X56362585Y-20753765D02*
X56248299Y-20296622D01*
X56248299Y-20296622D02*
X56019728Y-20068051D01*
X56019728Y-20068051D02*
X55791156Y-19953765D01*
X53962584Y-21553765D02*
X53276870Y-21553765D01*
X52362584Y-22353765D02*
X52362584Y-19953765D01*
X52362584Y-19953765D02*
X51562584Y-21668051D01*
X51562584Y-21668051D02*
X50762584Y-19953765D01*
X50762584Y-19953765D02*
X50762584Y-22353765D01*
X49619727Y-21096622D02*
X48819727Y-21096622D01*
X48476870Y-22353765D02*
X49619727Y-22353765D01*
X49619727Y-22353765D02*
X49619727Y-19953765D01*
X49619727Y-19953765D02*
X48476870Y-19953765D01*
X46191155Y-20068051D02*
X46419727Y-19953765D01*
X46419727Y-19953765D02*
X46762584Y-19953765D01*
X46762584Y-19953765D02*
X47105441Y-20068051D01*
X47105441Y-20068051D02*
X47334012Y-20296622D01*
X47334012Y-20296622D02*
X47448298Y-20525194D01*
X47448298Y-20525194D02*
X47562584Y-20982337D01*
X47562584Y-20982337D02*
X47562584Y-21325194D01*
X47562584Y-21325194D02*
X47448298Y-21782337D01*
X47448298Y-21782337D02*
X47334012Y-22010908D01*
X47334012Y-22010908D02*
X47105441Y-22239480D01*
X47105441Y-22239480D02*
X46762584Y-22353765D01*
X46762584Y-22353765D02*
X46534012Y-22353765D01*
X46534012Y-22353765D02*
X46191155Y-22239480D01*
X46191155Y-22239480D02*
X46076869Y-22125194D01*
X46076869Y-22125194D02*
X46076869Y-21325194D01*
X46076869Y-21325194D02*
X46534012Y-21325194D01*
X45162584Y-21668051D02*
X44019727Y-21668051D01*
X45391155Y-22353765D02*
X44591155Y-19953765D01*
X44591155Y-19953765D02*
X43791155Y-22353765D01*
D12*
X-32792479Y-39080142D02*
X-31352479Y-39080142D01*
X-31352479Y-39080142D02*
X-32381050Y-38600142D01*
X-32381050Y-38600142D02*
X-31352479Y-38120142D01*
X-31352479Y-38120142D02*
X-32792479Y-38120142D01*
X-32792479Y-37228714D02*
X-32723908Y-37365857D01*
X-32723908Y-37365857D02*
X-32655336Y-37434428D01*
X-32655336Y-37434428D02*
X-32518193Y-37503000D01*
X-32518193Y-37503000D02*
X-32106765Y-37503000D01*
X-32106765Y-37503000D02*
X-31969622Y-37434428D01*
X-31969622Y-37434428D02*
X-31901050Y-37365857D01*
X-31901050Y-37365857D02*
X-31832479Y-37228714D01*
X-31832479Y-37228714D02*
X-31832479Y-37023000D01*
X-31832479Y-37023000D02*
X-31901050Y-36885857D01*
X-31901050Y-36885857D02*
X-31969622Y-36817286D01*
X-31969622Y-36817286D02*
X-32106765Y-36748714D01*
X-32106765Y-36748714D02*
X-32518193Y-36748714D01*
X-32518193Y-36748714D02*
X-32655336Y-36817286D01*
X-32655336Y-36817286D02*
X-32723908Y-36885857D01*
X-32723908Y-36885857D02*
X-32792479Y-37023000D01*
X-32792479Y-37023000D02*
X-32792479Y-37228714D01*
X-31832479Y-36337286D02*
X-31832479Y-35788714D01*
X-31352479Y-36131571D02*
X-32586765Y-36131571D01*
X-32586765Y-36131571D02*
X-32723908Y-36063000D01*
X-32723908Y-36063000D02*
X-32792479Y-35925857D01*
X-32792479Y-35925857D02*
X-32792479Y-35788714D01*
X-32792479Y-35103000D02*
X-32723908Y-35240143D01*
X-32723908Y-35240143D02*
X-32655336Y-35308714D01*
X-32655336Y-35308714D02*
X-32518193Y-35377286D01*
X-32518193Y-35377286D02*
X-32106765Y-35377286D01*
X-32106765Y-35377286D02*
X-31969622Y-35308714D01*
X-31969622Y-35308714D02*
X-31901050Y-35240143D01*
X-31901050Y-35240143D02*
X-31832479Y-35103000D01*
X-31832479Y-35103000D02*
X-31832479Y-34897286D01*
X-31832479Y-34897286D02*
X-31901050Y-34760143D01*
X-31901050Y-34760143D02*
X-31969622Y-34691572D01*
X-31969622Y-34691572D02*
X-32106765Y-34623000D01*
X-32106765Y-34623000D02*
X-32518193Y-34623000D01*
X-32518193Y-34623000D02*
X-32655336Y-34691572D01*
X-32655336Y-34691572D02*
X-32723908Y-34760143D01*
X-32723908Y-34760143D02*
X-32792479Y-34897286D01*
X-32792479Y-34897286D02*
X-32792479Y-35103000D01*
X-32792479Y-34005857D02*
X-31832479Y-34005857D01*
X-32106765Y-34005857D02*
X-31969622Y-33937286D01*
X-31969622Y-33937286D02*
X-31901050Y-33868715D01*
X-31901050Y-33868715D02*
X-31832479Y-33731572D01*
X-31832479Y-33731572D02*
X-31832479Y-33594429D01*
X-32792479Y-32702999D02*
X-31352479Y-32702999D01*
X-31352479Y-32702999D02*
X-31352479Y-32360142D01*
X-31352479Y-32360142D02*
X-31421050Y-32154428D01*
X-31421050Y-32154428D02*
X-31558193Y-32017285D01*
X-31558193Y-32017285D02*
X-31695336Y-31948714D01*
X-31695336Y-31948714D02*
X-31969622Y-31880142D01*
X-31969622Y-31880142D02*
X-32175336Y-31880142D01*
X-32175336Y-31880142D02*
X-32449622Y-31948714D01*
X-32449622Y-31948714D02*
X-32586765Y-32017285D01*
X-32586765Y-32017285D02*
X-32723908Y-32154428D01*
X-32723908Y-32154428D02*
X-32792479Y-32360142D01*
X-32792479Y-32360142D02*
X-32792479Y-32702999D01*
X-32792479Y-31262999D02*
X-31832479Y-31262999D01*
X-32106765Y-31262999D02*
X-31969622Y-31194428D01*
X-31969622Y-31194428D02*
X-31901050Y-31125857D01*
X-31901050Y-31125857D02*
X-31832479Y-30988714D01*
X-31832479Y-30988714D02*
X-31832479Y-30851571D01*
X-32792479Y-30371570D02*
X-31832479Y-30371570D01*
X-31352479Y-30371570D02*
X-31421050Y-30440142D01*
X-31421050Y-30440142D02*
X-31489622Y-30371570D01*
X-31489622Y-30371570D02*
X-31421050Y-30302999D01*
X-31421050Y-30302999D02*
X-31352479Y-30371570D01*
X-31352479Y-30371570D02*
X-31489622Y-30371570D01*
X-31832479Y-29822999D02*
X-32792479Y-29480142D01*
X-32792479Y-29480142D02*
X-31832479Y-29137285D01*
X-32723908Y-28040142D02*
X-32792479Y-28177285D01*
X-32792479Y-28177285D02*
X-32792479Y-28451571D01*
X-32792479Y-28451571D02*
X-32723908Y-28588713D01*
X-32723908Y-28588713D02*
X-32586765Y-28657285D01*
X-32586765Y-28657285D02*
X-32038193Y-28657285D01*
X-32038193Y-28657285D02*
X-31901050Y-28588713D01*
X-31901050Y-28588713D02*
X-31832479Y-28451571D01*
X-31832479Y-28451571D02*
X-31832479Y-28177285D01*
X-31832479Y-28177285D02*
X-31901050Y-28040142D01*
X-31901050Y-28040142D02*
X-32038193Y-27971571D01*
X-32038193Y-27971571D02*
X-32175336Y-27971571D01*
X-32175336Y-27971571D02*
X-32312479Y-28657285D01*
X-32792479Y-27354427D02*
X-31832479Y-27354427D01*
X-32106765Y-27354427D02*
X-31969622Y-27285856D01*
X-31969622Y-27285856D02*
X-31901050Y-27217285D01*
X-31901050Y-27217285D02*
X-31832479Y-27080142D01*
X-31832479Y-27080142D02*
X-31832479Y-26942999D01*
D13*
X-32082126Y2470859D02*
X-31986888Y2280383D01*
X-31986888Y2280383D02*
X-31986888Y1994669D01*
X-31986888Y1994669D02*
X-32082126Y1708954D01*
X-32082126Y1708954D02*
X-32272602Y1518478D01*
X-32272602Y1518478D02*
X-32463078Y1423240D01*
X-32463078Y1423240D02*
X-32844030Y1328002D01*
X-32844030Y1328002D02*
X-33129745Y1328002D01*
X-33129745Y1328002D02*
X-33510697Y1423240D01*
X-33510697Y1423240D02*
X-33701173Y1518478D01*
X-33701173Y1518478D02*
X-33891650Y1708954D01*
X-33891650Y1708954D02*
X-33986888Y1994669D01*
X-33986888Y1994669D02*
X-33986888Y2185145D01*
X-33986888Y2185145D02*
X-33891650Y2470859D01*
X-33891650Y2470859D02*
X-33796411Y2566097D01*
X-33796411Y2566097D02*
X-33129745Y2566097D01*
X-33129745Y2566097D02*
X-33129745Y2185145D01*
X-33986888Y3423240D02*
X-31986888Y3423240D01*
X-31986888Y3423240D02*
X-31986888Y4185145D01*
X-31986888Y4185145D02*
X-32082126Y4375621D01*
X-32082126Y4375621D02*
X-32177364Y4470859D01*
X-32177364Y4470859D02*
X-32367840Y4566097D01*
X-32367840Y4566097D02*
X-32653554Y4566097D01*
X-32653554Y4566097D02*
X-32844030Y4470859D01*
X-32844030Y4470859D02*
X-32939269Y4375621D01*
X-32939269Y4375621D02*
X-33034507Y4185145D01*
X-33034507Y4185145D02*
X-33034507Y3423240D01*
X-33891650Y5328002D02*
X-33986888Y5613716D01*
X-33986888Y5613716D02*
X-33986888Y6089907D01*
X-33986888Y6089907D02*
X-33891650Y6280383D01*
X-33891650Y6280383D02*
X-33796411Y6375621D01*
X-33796411Y6375621D02*
X-33605935Y6470859D01*
X-33605935Y6470859D02*
X-33415459Y6470859D01*
X-33415459Y6470859D02*
X-33224983Y6375621D01*
X-33224983Y6375621D02*
X-33129745Y6280383D01*
X-33129745Y6280383D02*
X-33034507Y6089907D01*
X-33034507Y6089907D02*
X-32939269Y5708954D01*
X-32939269Y5708954D02*
X-32844030Y5518478D01*
X-32844030Y5518478D02*
X-32748792Y5423240D01*
X-32748792Y5423240D02*
X-32558316Y5328002D01*
X-32558316Y5328002D02*
X-32367840Y5328002D01*
X-32367840Y5328002D02*
X-32177364Y5423240D01*
X-32177364Y5423240D02*
X-32082126Y5518478D01*
X-32082126Y5518478D02*
X-31986888Y5708954D01*
X-31986888Y5708954D02*
X-31986888Y6185145D01*
X-31986888Y6185145D02*
X-32082126Y6470859D01*
X-33986888Y7899431D02*
X-31986888Y7899431D01*
X-32748792Y7899431D02*
X-32653554Y8089907D01*
X-32653554Y8089907D02*
X-32653554Y8470860D01*
X-32653554Y8470860D02*
X-32748792Y8661336D01*
X-32748792Y8661336D02*
X-32844030Y8756574D01*
X-32844030Y8756574D02*
X-33034507Y8851812D01*
X-33034507Y8851812D02*
X-33605935Y8851812D01*
X-33605935Y8851812D02*
X-33796411Y8756574D01*
X-33796411Y8756574D02*
X-33891650Y8661336D01*
X-33891650Y8661336D02*
X-33986888Y8470860D01*
X-33986888Y8470860D02*
X-33986888Y8089907D01*
X-33986888Y8089907D02*
X-33891650Y7899431D01*
X-33986888Y9708955D02*
X-32653554Y9708955D01*
X-33034507Y9708955D02*
X-32844030Y9804193D01*
X-32844030Y9804193D02*
X-32748792Y9899431D01*
X-32748792Y9899431D02*
X-32653554Y10089907D01*
X-32653554Y10089907D02*
X-32653554Y10280384D01*
X-33891650Y11708955D02*
X-33986888Y11518479D01*
X-33986888Y11518479D02*
X-33986888Y11137526D01*
X-33986888Y11137526D02*
X-33891650Y10947050D01*
X-33891650Y10947050D02*
X-33701173Y10851812D01*
X-33701173Y10851812D02*
X-32939269Y10851812D01*
X-32939269Y10851812D02*
X-32748792Y10947050D01*
X-32748792Y10947050D02*
X-32653554Y11137526D01*
X-32653554Y11137526D02*
X-32653554Y11518479D01*
X-32653554Y11518479D02*
X-32748792Y11708955D01*
X-32748792Y11708955D02*
X-32939269Y11804193D01*
X-32939269Y11804193D02*
X-33129745Y11804193D01*
X-33129745Y11804193D02*
X-33320221Y10851812D01*
X-33986888Y13518479D02*
X-32939269Y13518479D01*
X-32939269Y13518479D02*
X-32748792Y13423241D01*
X-32748792Y13423241D02*
X-32653554Y13232765D01*
X-32653554Y13232765D02*
X-32653554Y12851812D01*
X-32653554Y12851812D02*
X-32748792Y12661336D01*
X-33891650Y13518479D02*
X-33986888Y13328003D01*
X-33986888Y13328003D02*
X-33986888Y12851812D01*
X-33986888Y12851812D02*
X-33891650Y12661336D01*
X-33891650Y12661336D02*
X-33701173Y12566098D01*
X-33701173Y12566098D02*
X-33510697Y12566098D01*
X-33510697Y12566098D02*
X-33320221Y12661336D01*
X-33320221Y12661336D02*
X-33224983Y12851812D01*
X-33224983Y12851812D02*
X-33224983Y13328003D01*
X-33224983Y13328003D02*
X-33129745Y13518479D01*
X-33986888Y14470860D02*
X-31986888Y14470860D01*
X-33224983Y14661336D02*
X-33986888Y15232765D01*
X-32653554Y15232765D02*
X-33415459Y14470860D01*
X-33986888Y16375622D02*
X-33891650Y16185146D01*
X-33891650Y16185146D02*
X-33796411Y16089908D01*
X-33796411Y16089908D02*
X-33605935Y15994670D01*
X-33605935Y15994670D02*
X-33034507Y15994670D01*
X-33034507Y15994670D02*
X-32844030Y16089908D01*
X-32844030Y16089908D02*
X-32748792Y16185146D01*
X-32748792Y16185146D02*
X-32653554Y16375622D01*
X-32653554Y16375622D02*
X-32653554Y16661337D01*
X-32653554Y16661337D02*
X-32748792Y16851813D01*
X-32748792Y16851813D02*
X-32844030Y16947051D01*
X-32844030Y16947051D02*
X-33034507Y17042289D01*
X-33034507Y17042289D02*
X-33605935Y17042289D01*
X-33605935Y17042289D02*
X-33796411Y16947051D01*
X-33796411Y16947051D02*
X-33891650Y16851813D01*
X-33891650Y16851813D02*
X-33986888Y16661337D01*
X-33986888Y16661337D02*
X-33986888Y16375622D01*
X-32653554Y18756575D02*
X-33986888Y18756575D01*
X-32653554Y17899432D02*
X-33701173Y17899432D01*
X-33701173Y17899432D02*
X-33891650Y17994670D01*
X-33891650Y17994670D02*
X-33986888Y18185146D01*
X-33986888Y18185146D02*
X-33986888Y18470861D01*
X-33986888Y18470861D02*
X-33891650Y18661337D01*
X-33891650Y18661337D02*
X-33796411Y18756575D01*
X-32653554Y19423242D02*
X-32653554Y20185146D01*
X-31986888Y19708956D02*
X-33701173Y19708956D01*
X-33701173Y19708956D02*
X-33891650Y19804194D01*
X-33891650Y19804194D02*
X-33986888Y19994670D01*
X-33986888Y19994670D02*
X-33986888Y20185146D01*
M02*
