%TF.GenerationSoftware,Flux,Pcbnew,7.0.11-7.0.11~ubuntu20.04.1*%
%TF.CreationDate,2024-05-09T22:56:52+00:00*%
%TF.ProjectId,input,696e7075-742e-46b6-9963-61645f706362,rev?*%
%TF.SameCoordinates,Original*%
%TF.FileFunction,Copper,L3,Inr*%
%TF.FilePolarity,Positive*%
%FSLAX46Y46*%
G04 Gerber Fmt 4.6, Leading zero omitted, Abs format (unit mm)*
G04 Filename: desalinator*
G04 Build it with Flux! Visit our site at: https://www.flux.ai (PCBNEW 7.0.11-7.0.11~ubuntu20.04.1) date 2024-05-09 22:56:52*
%MOMM*%
%LPD*%
G01*
G04 APERTURE LIST*
G04 Aperture macros list*
%AMFreePoly0*
4,1,5,0.765000,-0.765000,-0.765000,-0.765000,-0.765000,0.765000,0.765000,0.765000,0.765000,-0.765000,0.765000,-0.765000,$1*%
%AMFreePoly1*
4,1,5,0.679000,-0.679000,-0.679000,-0.679000,-0.679000,0.679000,0.679000,0.679000,0.679000,-0.679000,0.679000,-0.679000,$1*%
%AMFreePoly2*
4,1,129,0.022069,0.299187,0.036723,0.297744,0.051289,0.295583,0.065730,0.292711,0.080014,0.289133,0.094105,0.284858,0.107969,0.279898,0.121572,0.274263,0.134883,0.267967,0.147869,0.261026,0.160499,0.253456,0.172742,0.245275,0.184569,0.236504,0.195952,0.227163,0.206862,0.217274,0.217274,0.206862,0.227163,0.195952,0.236504,0.184569,0.245275,0.172742,0.253456,0.160499,
0.261026,0.147869,0.267967,0.134883,0.274263,0.121572,0.279898,0.107969,0.284858,0.094105,0.289133,0.080014,0.292711,0.065730,0.295583,0.051289,0.297744,0.036723,0.299187,0.022069,0.299910,0.007362,0.299910,-0.007362,0.299187,-0.022069,0.297744,-0.036723,0.295583,-0.051289,0.292711,-0.065730,0.289133,-0.080014,0.284858,-0.094105,0.279898,-0.107969,0.274263,-0.121572,
0.267967,-0.134883,0.261026,-0.147869,0.253456,-0.160499,0.245275,-0.172742,0.236504,-0.184569,0.227163,-0.195952,0.217274,-0.206862,0.206862,-0.217274,0.195952,-0.227163,0.184569,-0.236504,0.172742,-0.245275,0.160499,-0.253456,0.147869,-0.261026,0.134883,-0.267967,0.121572,-0.274263,0.107969,-0.279898,0.094105,-0.284858,0.080014,-0.289133,0.065730,-0.292711,0.051289,-0.295583,
0.036723,-0.297744,0.022069,-0.299187,0.007362,-0.299910,-0.007362,-0.299910,-0.022069,-0.299187,-0.036723,-0.297744,-0.051289,-0.295583,-0.065730,-0.292711,-0.080014,-0.289133,-0.094105,-0.284858,-0.107969,-0.279898,-0.121572,-0.274263,-0.134883,-0.267967,-0.147869,-0.261026,-0.160499,-0.253456,-0.172742,-0.245275,-0.184569,-0.236504,-0.195952,-0.227163,-0.206862,-0.217274,-0.217274,-0.206862,
-0.227163,-0.195952,-0.236504,-0.184569,-0.245275,-0.172742,-0.253456,-0.160499,-0.261026,-0.147869,-0.267967,-0.134883,-0.274263,-0.121572,-0.279898,-0.107969,-0.284858,-0.094105,-0.289133,-0.080014,-0.292711,-0.065730,-0.295583,-0.051289,-0.297744,-0.036723,-0.299187,-0.022069,-0.299910,-0.007362,-0.299910,0.007362,-0.299187,0.022069,-0.297744,0.036723,-0.295583,0.051289,-0.292711,0.065730,
-0.289133,0.080014,-0.284858,0.094105,-0.279898,0.107969,-0.274263,0.121572,-0.267967,0.134883,-0.261026,0.147869,-0.253456,0.160499,-0.245275,0.172742,-0.236504,0.184569,-0.227163,0.195952,-0.217274,0.206862,-0.206862,0.217274,-0.195952,0.227163,-0.184569,0.236504,-0.172742,0.245275,-0.160499,0.253456,-0.147869,0.261026,-0.134883,0.267967,-0.121572,0.274263,-0.107969,0.279898,
-0.094105,0.284858,-0.080014,0.289133,-0.065730,0.292711,-0.051289,0.295583,-0.036723,0.297744,-0.022069,0.299187,-0.007362,0.299910,0.007362,0.299910,0.022069,0.299187,0.022069,0.299187,$1*%
G04 Aperture macros list end*
%TA.AperFunction,ComponentPad*%
%ADD10C,1.600000*%
%TD*%
%TA.AperFunction,ComponentPad*%
%ADD11C,3.000000*%
%TD*%
%TA.AperFunction,ComponentPad*%
%ADD12C,1.700000*%
%TD*%
%TA.AperFunction,ComponentPad*%
%ADD13C,1.530000*%
%TD*%
%TA.AperFunction,ComponentPad*%
%ADD14FreePoly0,180.000000*%
%TD*%
%TA.AperFunction,ComponentPad*%
%ADD15C,1.358000*%
%TD*%
%TA.AperFunction,ComponentPad*%
%ADD16FreePoly1,0.000000*%
%TD*%
%TA.AperFunction,ComponentPad*%
%ADD17FreePoly2,0.000000*%
%TD*%
%TA.AperFunction,Conductor*%
%ADD18C,0.254000*%
%TD*%
G04 APERTURE END LIST*
D10*
%TO.N,N/C*%
%TO.C,*%
X9197800Y41831900D03*
X9197810Y31671900D03*
D11*
X-43973200Y25556000D03*
X-23673200Y25560000D03*
D12*
X-36363200Y-3940000D03*
X-28743200Y-3940000D03*
X-43983200Y-3940000D03*
X-31283200Y-3940000D03*
X-23663200Y-3940000D03*
X-33823200Y-3940000D03*
X-26203200Y-3940000D03*
X-38903200Y-3940000D03*
X-41443200Y-3940000D03*
D13*
X-27654990Y-29876617D03*
X-40355003Y-34956583D03*
X-40355017Y-40036583D03*
D14*
X-27655024Y-42576617D03*
D13*
X-27654983Y-27336617D03*
X-27655017Y-40036617D03*
X-40354976Y-24796583D03*
X-40355010Y-37496583D03*
X-40354983Y-27336583D03*
X-27655010Y-37496617D03*
X-40354990Y-29876583D03*
X-27654997Y-32416617D03*
X-40354997Y-32416583D03*
X-40355024Y-42576583D03*
X-27655003Y-34956617D03*
X-27654976Y-24796617D03*
D10*
X40429900Y18503200D03*
X30269900Y18503227D03*
D15*
X74210800Y-19046700D03*
X74210800Y-13966700D03*
X71670800Y-44446700D03*
X46270800Y-46986700D03*
X74210800Y-44446700D03*
X25950800Y13973300D03*
X41190800Y-46986700D03*
X48810800Y-46986700D03*
X74210800Y28197300D03*
X69130800Y-44446700D03*
X36110800Y-44446700D03*
X25950800Y-29206700D03*
X25950800Y-8886700D03*
X74210800Y-1266700D03*
X25950800Y-16506700D03*
X74210800Y-29206700D03*
X41190800Y-44446700D03*
D16*
X25950800Y21593300D03*
D15*
X58970800Y-46986700D03*
X51350800Y-44446700D03*
X25950800Y-13966700D03*
X56430800Y-46986700D03*
X31030800Y-44446700D03*
X74210800Y-3806700D03*
X74210800Y-21586700D03*
X46270800Y-44446700D03*
X64050800Y-44446700D03*
X25950800Y8893300D03*
X33570800Y-44446700D03*
X33570800Y-46986700D03*
X74210800Y-8886700D03*
X74210800Y18037300D03*
X74210800Y25657300D03*
X74210800Y23117300D03*
X38650800Y-44446700D03*
X74210800Y-46986700D03*
X25950800Y-34286700D03*
X74210800Y-6346700D03*
X74210800Y1273300D03*
X43730800Y-46986700D03*
X53890800Y-46986700D03*
X25950800Y-1266700D03*
X74210800Y20577300D03*
X25950800Y19053300D03*
X25950800Y3813300D03*
X31030800Y-46986700D03*
X74210800Y-36826700D03*
X74210800Y3813300D03*
X48810800Y-44446700D03*
X53890800Y-44446700D03*
X25950800Y-36826700D03*
X25950800Y-6346700D03*
X61510800Y-46986700D03*
X74210800Y15497300D03*
X56430800Y-44446700D03*
X51350800Y-46986700D03*
X25950800Y6353300D03*
X69130800Y-46986700D03*
X25950800Y-39112700D03*
X36110800Y-46986700D03*
X25950800Y-11426700D03*
X74210800Y30737300D03*
X74210800Y12957300D03*
X61510800Y-44446700D03*
X66590800Y-46986700D03*
X43730800Y-44446700D03*
X38650800Y-46986700D03*
X25950800Y-19046700D03*
X74210800Y-26666700D03*
X74210800Y7877300D03*
X74210800Y-34286700D03*
X25950800Y-41652700D03*
X25950800Y16513300D03*
X74210800Y-24126700D03*
X74210800Y-31746700D03*
X71670800Y-46986700D03*
X25950800Y-24126700D03*
X25950800Y-31746700D03*
X66590800Y-44446700D03*
X25950800Y-26666700D03*
X74210800Y-11426700D03*
X74210800Y10417300D03*
X25950800Y11433300D03*
X58970800Y-44446700D03*
X64050800Y-46986700D03*
X25950800Y-3806700D03*
D17*
%TO.N,Net 2*%
X34638500Y-21586700D03*
X34638400Y-30861200D03*
X34638500Y-15592100D03*
X32664000Y-33274100D03*
X36070400Y-13966700D03*
X34638500Y-25263800D03*
X34638700Y-15592100D03*
%TO.N,Net 11*%
X13774700Y-30861200D03*
%TO.N,Net 16*%
X-57973800Y-17300600D03*
X-55276800Y-17300600D03*
X-44110500Y-26209500D03*
%TO.N,Net 1*%
X10422400Y-45834200D03*
%TO.N,Net 8*%
X40490500Y-35505000D03*
%TO.N,Net 12*%
X28428600Y-27676600D03*
X33570800Y-25263900D03*
X53890800Y-43060600D03*
X39969700Y-27161000D03*
X31764600Y-27676600D03*
X36110800Y-27161000D03*
%TO.N,Net 17*%
X-50956300Y-29876600D03*
X-69084000Y-31471800D03*
%TO.N,Net 9*%
X44138900Y-42698300D03*
X31030800Y-42698400D03*
X29075700Y-44798000D03*
%TO.N,Net 20*%
X1000100Y15497300D03*
X2582200Y17670700D03*
X4103500Y19217700D03*
X5703100Y19053300D03*
X13124200Y18037500D03*
X9795100Y16513300D03*
%TO.N,Net 19*%
X6741400Y15214200D03*
X9197800Y26327500D03*
%TO.N,Net 18*%
X-6248300Y21086100D03*
X9036700Y6353300D03*
X-6248300Y6353300D03*
X-6248300Y17079300D03*
%TO.N,Net 3*%
X-12943700Y-11523200D03*
X50357500Y-40636700D03*
X36110800Y-29206700D03*
X-12666300Y-16069000D03*
X6337100Y-23363400D03*
X42756300Y-31746700D03*
%TO.N,Net 13*%
X45090600Y-40036800D03*
X-12993900Y-42142200D03*
%TO.N,Net 15*%
X-42453000Y-33935600D03*
%TO.N,Net 10*%
X44528500Y-41495600D03*
X-8468400Y-43251600D03*
%TO.N,Net 21*%
X48752500Y18037300D03*
X64372600Y30737300D03*
%TO.N,Net 6*%
X6741300Y21886100D03*
X3155300Y29536400D03*
X-4018500Y24460100D03*
X-4237100Y23955500D03*
%TO.N,Net 18*%
X-3461900Y22117500D03*
%TD*%
D18*
%TO.N,Net 20*%
X2582100Y17079300D02*
X1000100Y15497300D01*
X2582200Y17670700D02*
X2582200Y17079300D01*
X1000100Y15497300D02*
X1000300Y15497500D01*
%TD*%
M02*
