%TF.GenerationSoftware,Flux,Pcbnew,7.0.11-7.0.11~ubuntu20.04.1*%
%TF.CreationDate,2024-05-09T22:56:52+00:00*%
%TF.ProjectId,input,696e7075-742e-46b6-9963-61645f706362,rev?*%
%TF.SameCoordinates,Original*%
%TF.FileFunction,Legend,Top*%
%TF.FilePolarity,Positive*%
%FSLAX46Y46*%
G04 Gerber Fmt 4.6, Leading zero omitted, Abs format (unit mm)*
G04 Filename: desalinator*
G04 Build it with Flux! Visit our site at: https://www.flux.ai (PCBNEW 7.0.11-7.0.11~ubuntu20.04.1) date 2024-05-09 22:56:52*
%MOMM*%
%LPD*%
G01*
G04 APERTURE LIST*
%ADD10C,0.095000*%
%ADD11C,0.152400*%
%ADD12C,0.120000*%
%ADD13C,0.200000*%
%ADD14C,0.127000*%
%ADD15C,0.050000*%
%ADD16C,0.300000*%
G04 APERTURE END LIST*
D10*
X6462649Y37685231D02*
X6462649Y38142374D01*
X6462649Y37913802D02*
X7262649Y37913802D01*
X7262649Y37913802D02*
X7148364Y37989993D01*
X7148364Y37989993D02*
X7072173Y38066183D01*
X7072173Y38066183D02*
X7034078Y38142374D01*
X7262649Y37189992D02*
X7262649Y37113802D01*
X7262649Y37113802D02*
X7224554Y37037611D01*
X7224554Y37037611D02*
X7186459Y36999516D01*
X7186459Y36999516D02*
X7110268Y36961421D01*
X7110268Y36961421D02*
X6957887Y36923326D01*
X6957887Y36923326D02*
X6767411Y36923326D01*
X6767411Y36923326D02*
X6615030Y36961421D01*
X6615030Y36961421D02*
X6538840Y36999516D01*
X6538840Y36999516D02*
X6500745Y37037611D01*
X6500745Y37037611D02*
X6462649Y37113802D01*
X6462649Y37113802D02*
X6462649Y37189992D01*
X6462649Y37189992D02*
X6500745Y37266183D01*
X6500745Y37266183D02*
X6538840Y37304278D01*
X6538840Y37304278D02*
X6615030Y37342373D01*
X6615030Y37342373D02*
X6767411Y37380469D01*
X6767411Y37380469D02*
X6957887Y37380469D01*
X6957887Y37380469D02*
X7110268Y37342373D01*
X7110268Y37342373D02*
X7186459Y37304278D01*
X7186459Y37304278D02*
X7224554Y37266183D01*
X7224554Y37266183D02*
X7262649Y37189992D01*
X6462649Y36580468D02*
X7262649Y36580468D01*
X6767411Y36504278D02*
X6462649Y36275706D01*
X6995983Y36275706D02*
X6691221Y36580468D01*
X6462649Y35970945D02*
X6462649Y35780468D01*
X6462649Y35780468D02*
X6615030Y35780468D01*
X6615030Y35780468D02*
X6653125Y35856659D01*
X6653125Y35856659D02*
X6729316Y35932849D01*
X6729316Y35932849D02*
X6843602Y35970945D01*
X6843602Y35970945D02*
X7034078Y35970945D01*
X7034078Y35970945D02*
X7148364Y35932849D01*
X7148364Y35932849D02*
X7224554Y35856659D01*
X7224554Y35856659D02*
X7262649Y35742373D01*
X7262649Y35742373D02*
X7262649Y35589992D01*
X7262649Y35589992D02*
X7224554Y35475706D01*
X7224554Y35475706D02*
X7148364Y35399516D01*
X7148364Y35399516D02*
X7034078Y35361421D01*
X7034078Y35361421D02*
X6843602Y35361421D01*
X6843602Y35361421D02*
X6729316Y35399516D01*
X6729316Y35399516D02*
X6653125Y35475706D01*
X6653125Y35475706D02*
X6615030Y35551897D01*
X6615030Y35551897D02*
X6462649Y35551897D01*
X6462649Y35551897D02*
X6462649Y35361421D01*
X11202649Y36885234D02*
X11583602Y37151901D01*
X11202649Y37342377D02*
X12002649Y37342377D01*
X12002649Y37342377D02*
X12002649Y37037615D01*
X12002649Y37037615D02*
X11964554Y36961425D01*
X11964554Y36961425D02*
X11926459Y36923330D01*
X11926459Y36923330D02*
X11850268Y36885234D01*
X11850268Y36885234D02*
X11735983Y36885234D01*
X11735983Y36885234D02*
X11659792Y36923330D01*
X11659792Y36923330D02*
X11621697Y36961425D01*
X11621697Y36961425D02*
X11583602Y37037615D01*
X11583602Y37037615D02*
X11583602Y37342377D01*
X11926459Y36580473D02*
X11964554Y36542377D01*
X11964554Y36542377D02*
X12002649Y36466187D01*
X12002649Y36466187D02*
X12002649Y36275711D01*
X12002649Y36275711D02*
X11964554Y36199520D01*
X11964554Y36199520D02*
X11926459Y36161425D01*
X11926459Y36161425D02*
X11850268Y36123330D01*
X11850268Y36123330D02*
X11774078Y36123330D01*
X11774078Y36123330D02*
X11659792Y36161425D01*
X11659792Y36161425D02*
X11202649Y36618568D01*
X11202649Y36618568D02*
X11202649Y36123330D01*
X-64536170Y-23824955D02*
X-64536170Y-23024955D01*
X-64536170Y-23405907D02*
X-64079027Y-23405907D01*
X-64079027Y-23824955D02*
X-64079027Y-23024955D01*
X-69869504Y-20431621D02*
X-70479027Y-20660193D01*
X-70479027Y-20660193D02*
X-69869504Y-20888764D01*
X-68879028Y-20431621D02*
X-69488551Y-20660193D01*
X-69488551Y-20660193D02*
X-68879028Y-20888764D01*
X-67926647Y-20431621D02*
X-67926647Y-20964955D01*
X-68269504Y-20431621D02*
X-68269504Y-20850669D01*
X-68269504Y-20850669D02*
X-68231409Y-20926860D01*
X-68231409Y-20926860D02*
X-68155219Y-20964955D01*
X-68155219Y-20964955D02*
X-68040933Y-20964955D01*
X-68040933Y-20964955D02*
X-67964742Y-20926860D01*
X-67964742Y-20926860D02*
X-67926647Y-20888764D01*
X-67545694Y-20431621D02*
X-67545694Y-20964955D01*
X-67545694Y-20507812D02*
X-67507599Y-20469717D01*
X-67507599Y-20469717D02*
X-67431409Y-20431621D01*
X-67431409Y-20431621D02*
X-67317123Y-20431621D01*
X-67317123Y-20431621D02*
X-67240932Y-20469717D01*
X-67240932Y-20469717D02*
X-67202837Y-20545907D01*
X-67202837Y-20545907D02*
X-67202837Y-20964955D01*
X-66479027Y-20964955D02*
X-66479027Y-20164955D01*
X-66479027Y-20926860D02*
X-66555218Y-20964955D01*
X-66555218Y-20964955D02*
X-66707599Y-20964955D01*
X-66707599Y-20964955D02*
X-66783789Y-20926860D01*
X-66783789Y-20926860D02*
X-66821884Y-20888764D01*
X-66821884Y-20888764D02*
X-66859980Y-20812574D01*
X-66859980Y-20812574D02*
X-66859980Y-20584002D01*
X-66859980Y-20584002D02*
X-66821884Y-20507812D01*
X-66821884Y-20507812D02*
X-66783789Y-20469717D01*
X-66783789Y-20469717D02*
X-66707599Y-20431621D01*
X-66707599Y-20431621D02*
X-66555218Y-20431621D01*
X-66555218Y-20431621D02*
X-66479027Y-20469717D01*
X-65793312Y-20926860D02*
X-65869503Y-20964955D01*
X-65869503Y-20964955D02*
X-66021884Y-20964955D01*
X-66021884Y-20964955D02*
X-66098074Y-20926860D01*
X-66098074Y-20926860D02*
X-66136170Y-20850669D01*
X-66136170Y-20850669D02*
X-66136170Y-20545907D01*
X-66136170Y-20545907D02*
X-66098074Y-20469717D01*
X-66098074Y-20469717D02*
X-66021884Y-20431621D01*
X-66021884Y-20431621D02*
X-65869503Y-20431621D01*
X-65869503Y-20431621D02*
X-65793312Y-20469717D01*
X-65793312Y-20469717D02*
X-65755217Y-20545907D01*
X-65755217Y-20545907D02*
X-65755217Y-20622098D01*
X-65755217Y-20622098D02*
X-66136170Y-20698288D01*
X-65526646Y-20431621D02*
X-65221884Y-20431621D01*
X-65412360Y-20964955D02*
X-65412360Y-20279240D01*
X-65412360Y-20279240D02*
X-65374265Y-20203050D01*
X-65374265Y-20203050D02*
X-65298075Y-20164955D01*
X-65298075Y-20164955D02*
X-65221884Y-20164955D01*
X-64955217Y-20964955D02*
X-64955217Y-20431621D01*
X-64955217Y-20164955D02*
X-64993313Y-20203050D01*
X-64993313Y-20203050D02*
X-64955217Y-20241145D01*
X-64955217Y-20241145D02*
X-64917122Y-20203050D01*
X-64917122Y-20203050D02*
X-64955217Y-20164955D01*
X-64955217Y-20164955D02*
X-64955217Y-20241145D01*
X-64574265Y-20431621D02*
X-64574265Y-20964955D01*
X-64574265Y-20507812D02*
X-64536170Y-20469717D01*
X-64536170Y-20469717D02*
X-64459980Y-20431621D01*
X-64459980Y-20431621D02*
X-64345694Y-20431621D01*
X-64345694Y-20431621D02*
X-64269503Y-20469717D01*
X-64269503Y-20469717D02*
X-64231408Y-20545907D01*
X-64231408Y-20545907D02*
X-64231408Y-20964955D01*
X-63545693Y-20926860D02*
X-63621884Y-20964955D01*
X-63621884Y-20964955D02*
X-63774265Y-20964955D01*
X-63774265Y-20964955D02*
X-63850455Y-20926860D01*
X-63850455Y-20926860D02*
X-63888551Y-20850669D01*
X-63888551Y-20850669D02*
X-63888551Y-20545907D01*
X-63888551Y-20545907D02*
X-63850455Y-20469717D01*
X-63850455Y-20469717D02*
X-63774265Y-20431621D01*
X-63774265Y-20431621D02*
X-63621884Y-20431621D01*
X-63621884Y-20431621D02*
X-63545693Y-20469717D01*
X-63545693Y-20469717D02*
X-63507598Y-20545907D01*
X-63507598Y-20545907D02*
X-63507598Y-20622098D01*
X-63507598Y-20622098D02*
X-63888551Y-20698288D01*
X-62821884Y-20964955D02*
X-62821884Y-20164955D01*
X-62821884Y-20926860D02*
X-62898075Y-20964955D01*
X-62898075Y-20964955D02*
X-63050456Y-20964955D01*
X-63050456Y-20964955D02*
X-63126646Y-20926860D01*
X-63126646Y-20926860D02*
X-63164741Y-20888764D01*
X-63164741Y-20888764D02*
X-63202837Y-20812574D01*
X-63202837Y-20812574D02*
X-63202837Y-20584002D01*
X-63202837Y-20584002D02*
X-63164741Y-20507812D01*
X-63164741Y-20507812D02*
X-63126646Y-20469717D01*
X-63126646Y-20469717D02*
X-63050456Y-20431621D01*
X-63050456Y-20431621D02*
X-62898075Y-20431621D01*
X-62898075Y-20431621D02*
X-62821884Y-20469717D01*
X-62326646Y-20431621D02*
X-62021884Y-20431621D01*
X-62212360Y-20164955D02*
X-62212360Y-20850669D01*
X-62212360Y-20850669D02*
X-62174265Y-20926860D01*
X-62174265Y-20926860D02*
X-62098075Y-20964955D01*
X-62098075Y-20964955D02*
X-62021884Y-20964955D01*
X-61450455Y-20926860D02*
X-61526646Y-20964955D01*
X-61526646Y-20964955D02*
X-61679027Y-20964955D01*
X-61679027Y-20964955D02*
X-61755217Y-20926860D01*
X-61755217Y-20926860D02*
X-61793313Y-20850669D01*
X-61793313Y-20850669D02*
X-61793313Y-20545907D01*
X-61793313Y-20545907D02*
X-61755217Y-20469717D01*
X-61755217Y-20469717D02*
X-61679027Y-20431621D01*
X-61679027Y-20431621D02*
X-61526646Y-20431621D01*
X-61526646Y-20431621D02*
X-61450455Y-20469717D01*
X-61450455Y-20469717D02*
X-61412360Y-20545907D01*
X-61412360Y-20545907D02*
X-61412360Y-20622098D01*
X-61412360Y-20622098D02*
X-61793313Y-20698288D01*
X-61145694Y-20964955D02*
X-60726646Y-20431621D01*
X-61145694Y-20431621D02*
X-60726646Y-20964955D01*
X-60536170Y-20431621D02*
X-60231408Y-20431621D01*
X-60421884Y-20164955D02*
X-60421884Y-20850669D01*
X-60421884Y-20850669D02*
X-60383789Y-20926860D01*
X-60383789Y-20926860D02*
X-60307599Y-20964955D01*
X-60307599Y-20964955D02*
X-60231408Y-20964955D01*
X-59736170Y-20431621D02*
X-59126647Y-20660193D01*
X-59126647Y-20660193D02*
X-59736170Y-20888764D01*
X-58745694Y-20431621D02*
X-58136171Y-20660193D01*
X-58136171Y-20660193D02*
X-58745694Y-20888764D01*
X-70886070Y-22374355D02*
X-70886070Y-21574355D01*
X-70886070Y-21955307D02*
X-70428927Y-21955307D01*
X-70428927Y-22374355D02*
X-70428927Y-21574355D01*
X-76219404Y-18981021D02*
X-76828927Y-19209593D01*
X-76828927Y-19209593D02*
X-76219404Y-19438164D01*
X-75228928Y-18981021D02*
X-75838451Y-19209593D01*
X-75838451Y-19209593D02*
X-75228928Y-19438164D01*
X-74276547Y-18981021D02*
X-74276547Y-19514355D01*
X-74619404Y-18981021D02*
X-74619404Y-19400069D01*
X-74619404Y-19400069D02*
X-74581309Y-19476260D01*
X-74581309Y-19476260D02*
X-74505119Y-19514355D01*
X-74505119Y-19514355D02*
X-74390833Y-19514355D01*
X-74390833Y-19514355D02*
X-74314642Y-19476260D01*
X-74314642Y-19476260D02*
X-74276547Y-19438164D01*
X-73895594Y-18981021D02*
X-73895594Y-19514355D01*
X-73895594Y-19057212D02*
X-73857499Y-19019117D01*
X-73857499Y-19019117D02*
X-73781309Y-18981021D01*
X-73781309Y-18981021D02*
X-73667023Y-18981021D01*
X-73667023Y-18981021D02*
X-73590832Y-19019117D01*
X-73590832Y-19019117D02*
X-73552737Y-19095307D01*
X-73552737Y-19095307D02*
X-73552737Y-19514355D01*
X-72828927Y-19514355D02*
X-72828927Y-18714355D01*
X-72828927Y-19476260D02*
X-72905118Y-19514355D01*
X-72905118Y-19514355D02*
X-73057499Y-19514355D01*
X-73057499Y-19514355D02*
X-73133689Y-19476260D01*
X-73133689Y-19476260D02*
X-73171784Y-19438164D01*
X-73171784Y-19438164D02*
X-73209880Y-19361974D01*
X-73209880Y-19361974D02*
X-73209880Y-19133402D01*
X-73209880Y-19133402D02*
X-73171784Y-19057212D01*
X-73171784Y-19057212D02*
X-73133689Y-19019117D01*
X-73133689Y-19019117D02*
X-73057499Y-18981021D01*
X-73057499Y-18981021D02*
X-72905118Y-18981021D01*
X-72905118Y-18981021D02*
X-72828927Y-19019117D01*
X-72143212Y-19476260D02*
X-72219403Y-19514355D01*
X-72219403Y-19514355D02*
X-72371784Y-19514355D01*
X-72371784Y-19514355D02*
X-72447974Y-19476260D01*
X-72447974Y-19476260D02*
X-72486070Y-19400069D01*
X-72486070Y-19400069D02*
X-72486070Y-19095307D01*
X-72486070Y-19095307D02*
X-72447974Y-19019117D01*
X-72447974Y-19019117D02*
X-72371784Y-18981021D01*
X-72371784Y-18981021D02*
X-72219403Y-18981021D01*
X-72219403Y-18981021D02*
X-72143212Y-19019117D01*
X-72143212Y-19019117D02*
X-72105117Y-19095307D01*
X-72105117Y-19095307D02*
X-72105117Y-19171498D01*
X-72105117Y-19171498D02*
X-72486070Y-19247688D01*
X-71876546Y-18981021D02*
X-71571784Y-18981021D01*
X-71762260Y-19514355D02*
X-71762260Y-18828640D01*
X-71762260Y-18828640D02*
X-71724165Y-18752450D01*
X-71724165Y-18752450D02*
X-71647975Y-18714355D01*
X-71647975Y-18714355D02*
X-71571784Y-18714355D01*
X-71305117Y-19514355D02*
X-71305117Y-18981021D01*
X-71305117Y-18714355D02*
X-71343213Y-18752450D01*
X-71343213Y-18752450D02*
X-71305117Y-18790545D01*
X-71305117Y-18790545D02*
X-71267022Y-18752450D01*
X-71267022Y-18752450D02*
X-71305117Y-18714355D01*
X-71305117Y-18714355D02*
X-71305117Y-18790545D01*
X-70924165Y-18981021D02*
X-70924165Y-19514355D01*
X-70924165Y-19057212D02*
X-70886070Y-19019117D01*
X-70886070Y-19019117D02*
X-70809880Y-18981021D01*
X-70809880Y-18981021D02*
X-70695594Y-18981021D01*
X-70695594Y-18981021D02*
X-70619403Y-19019117D01*
X-70619403Y-19019117D02*
X-70581308Y-19095307D01*
X-70581308Y-19095307D02*
X-70581308Y-19514355D01*
X-69895593Y-19476260D02*
X-69971784Y-19514355D01*
X-69971784Y-19514355D02*
X-70124165Y-19514355D01*
X-70124165Y-19514355D02*
X-70200355Y-19476260D01*
X-70200355Y-19476260D02*
X-70238451Y-19400069D01*
X-70238451Y-19400069D02*
X-70238451Y-19095307D01*
X-70238451Y-19095307D02*
X-70200355Y-19019117D01*
X-70200355Y-19019117D02*
X-70124165Y-18981021D01*
X-70124165Y-18981021D02*
X-69971784Y-18981021D01*
X-69971784Y-18981021D02*
X-69895593Y-19019117D01*
X-69895593Y-19019117D02*
X-69857498Y-19095307D01*
X-69857498Y-19095307D02*
X-69857498Y-19171498D01*
X-69857498Y-19171498D02*
X-70238451Y-19247688D01*
X-69171784Y-19514355D02*
X-69171784Y-18714355D01*
X-69171784Y-19476260D02*
X-69247975Y-19514355D01*
X-69247975Y-19514355D02*
X-69400356Y-19514355D01*
X-69400356Y-19514355D02*
X-69476546Y-19476260D01*
X-69476546Y-19476260D02*
X-69514641Y-19438164D01*
X-69514641Y-19438164D02*
X-69552737Y-19361974D01*
X-69552737Y-19361974D02*
X-69552737Y-19133402D01*
X-69552737Y-19133402D02*
X-69514641Y-19057212D01*
X-69514641Y-19057212D02*
X-69476546Y-19019117D01*
X-69476546Y-19019117D02*
X-69400356Y-18981021D01*
X-69400356Y-18981021D02*
X-69247975Y-18981021D01*
X-69247975Y-18981021D02*
X-69171784Y-19019117D01*
X-68676546Y-18981021D02*
X-68371784Y-18981021D01*
X-68562260Y-18714355D02*
X-68562260Y-19400069D01*
X-68562260Y-19400069D02*
X-68524165Y-19476260D01*
X-68524165Y-19476260D02*
X-68447975Y-19514355D01*
X-68447975Y-19514355D02*
X-68371784Y-19514355D01*
X-67800355Y-19476260D02*
X-67876546Y-19514355D01*
X-67876546Y-19514355D02*
X-68028927Y-19514355D01*
X-68028927Y-19514355D02*
X-68105117Y-19476260D01*
X-68105117Y-19476260D02*
X-68143213Y-19400069D01*
X-68143213Y-19400069D02*
X-68143213Y-19095307D01*
X-68143213Y-19095307D02*
X-68105117Y-19019117D01*
X-68105117Y-19019117D02*
X-68028927Y-18981021D01*
X-68028927Y-18981021D02*
X-67876546Y-18981021D01*
X-67876546Y-18981021D02*
X-67800355Y-19019117D01*
X-67800355Y-19019117D02*
X-67762260Y-19095307D01*
X-67762260Y-19095307D02*
X-67762260Y-19171498D01*
X-67762260Y-19171498D02*
X-68143213Y-19247688D01*
X-67495594Y-19514355D02*
X-67076546Y-18981021D01*
X-67495594Y-18981021D02*
X-67076546Y-19514355D01*
X-66886070Y-18981021D02*
X-66581308Y-18981021D01*
X-66771784Y-18714355D02*
X-66771784Y-19400069D01*
X-66771784Y-19400069D02*
X-66733689Y-19476260D01*
X-66733689Y-19476260D02*
X-66657499Y-19514355D01*
X-66657499Y-19514355D02*
X-66581308Y-19514355D01*
X-66086070Y-18981021D02*
X-65476547Y-19209593D01*
X-65476547Y-19209593D02*
X-66086070Y-19438164D01*
X-65095594Y-18981021D02*
X-64486071Y-19209593D01*
X-64486071Y-19209593D02*
X-65095594Y-19438164D01*
X-34756723Y30216244D02*
X-34756723Y29568625D01*
X-34756723Y29568625D02*
X-34718628Y29492435D01*
X-34718628Y29492435D02*
X-34680533Y29454340D01*
X-34680533Y29454340D02*
X-34604342Y29416244D01*
X-34604342Y29416244D02*
X-34451961Y29416244D01*
X-34451961Y29416244D02*
X-34375771Y29454340D01*
X-34375771Y29454340D02*
X-34337676Y29492435D01*
X-34337676Y29492435D02*
X-34299580Y29568625D01*
X-34299580Y29568625D02*
X-34299580Y30216244D01*
X-33994819Y30216244D02*
X-33499581Y30216244D01*
X-33499581Y30216244D02*
X-33766247Y29911482D01*
X-33766247Y29911482D02*
X-33651962Y29911482D01*
X-33651962Y29911482D02*
X-33575771Y29873387D01*
X-33575771Y29873387D02*
X-33537676Y29835292D01*
X-33537676Y29835292D02*
X-33499581Y29759101D01*
X-33499581Y29759101D02*
X-33499581Y29568625D01*
X-33499581Y29568625D02*
X-33537676Y29492435D01*
X-33537676Y29492435D02*
X-33575771Y29454340D01*
X-33575771Y29454340D02*
X-33651962Y29416244D01*
X-33651962Y29416244D02*
X-33880533Y29416244D01*
X-33880533Y29416244D02*
X-33956724Y29454340D01*
X-33956724Y29454340D02*
X-33994819Y29492435D01*
X37445066Y-7638355D02*
X37178399Y-7257402D01*
X36987923Y-7638355D02*
X36987923Y-6838355D01*
X36987923Y-6838355D02*
X37292685Y-6838355D01*
X37292685Y-6838355D02*
X37368875Y-6876450D01*
X37368875Y-6876450D02*
X37406970Y-6914545D01*
X37406970Y-6914545D02*
X37445066Y-6990736D01*
X37445066Y-6990736D02*
X37445066Y-7105021D01*
X37445066Y-7105021D02*
X37406970Y-7181212D01*
X37406970Y-7181212D02*
X37368875Y-7219307D01*
X37368875Y-7219307D02*
X37292685Y-7257402D01*
X37292685Y-7257402D02*
X36987923Y-7257402D01*
X37902208Y-7638355D02*
X37826018Y-7600260D01*
X37826018Y-7600260D02*
X37787923Y-7562164D01*
X37787923Y-7562164D02*
X37749827Y-7485974D01*
X37749827Y-7485974D02*
X37749827Y-7257402D01*
X37749827Y-7257402D02*
X37787923Y-7181212D01*
X37787923Y-7181212D02*
X37826018Y-7143117D01*
X37826018Y-7143117D02*
X37902208Y-7105021D01*
X37902208Y-7105021D02*
X38016494Y-7105021D01*
X38016494Y-7105021D02*
X38092685Y-7143117D01*
X38092685Y-7143117D02*
X38130780Y-7181212D01*
X38130780Y-7181212D02*
X38168875Y-7257402D01*
X38168875Y-7257402D02*
X38168875Y-7485974D01*
X38168875Y-7485974D02*
X38130780Y-7562164D01*
X38130780Y-7562164D02*
X38092685Y-7600260D01*
X38092685Y-7600260D02*
X38016494Y-7638355D01*
X38016494Y-7638355D02*
X37902208Y-7638355D01*
X38397447Y-7105021D02*
X38702209Y-7105021D01*
X38511733Y-6838355D02*
X38511733Y-7524069D01*
X38511733Y-7524069D02*
X38549828Y-7600260D01*
X38549828Y-7600260D02*
X38626018Y-7638355D01*
X38626018Y-7638355D02*
X38702209Y-7638355D01*
X39311733Y-7638355D02*
X39311733Y-7219307D01*
X39311733Y-7219307D02*
X39273638Y-7143117D01*
X39273638Y-7143117D02*
X39197447Y-7105021D01*
X39197447Y-7105021D02*
X39045066Y-7105021D01*
X39045066Y-7105021D02*
X38968876Y-7143117D01*
X39311733Y-7600260D02*
X39235542Y-7638355D01*
X39235542Y-7638355D02*
X39045066Y-7638355D01*
X39045066Y-7638355D02*
X38968876Y-7600260D01*
X38968876Y-7600260D02*
X38930780Y-7524069D01*
X38930780Y-7524069D02*
X38930780Y-7447879D01*
X38930780Y-7447879D02*
X38968876Y-7371688D01*
X38968876Y-7371688D02*
X39045066Y-7333593D01*
X39045066Y-7333593D02*
X39235542Y-7333593D01*
X39235542Y-7333593D02*
X39311733Y-7295498D01*
X39692686Y-7638355D02*
X39692686Y-7105021D01*
X39692686Y-7257402D02*
X39730781Y-7181212D01*
X39730781Y-7181212D02*
X39768876Y-7143117D01*
X39768876Y-7143117D02*
X39845067Y-7105021D01*
X39845067Y-7105021D02*
X39921257Y-7105021D01*
X40111733Y-7105021D02*
X40302209Y-7638355D01*
X40492686Y-7105021D02*
X40302209Y-7638355D01*
X40302209Y-7638355D02*
X40226019Y-7828831D01*
X40226019Y-7828831D02*
X40187924Y-7866926D01*
X40187924Y-7866926D02*
X40111733Y-7905021D01*
X41330781Y-7600260D02*
X41254590Y-7638355D01*
X41254590Y-7638355D02*
X41102209Y-7638355D01*
X41102209Y-7638355D02*
X41026019Y-7600260D01*
X41026019Y-7600260D02*
X40987923Y-7524069D01*
X40987923Y-7524069D02*
X40987923Y-7219307D01*
X40987923Y-7219307D02*
X41026019Y-7143117D01*
X41026019Y-7143117D02*
X41102209Y-7105021D01*
X41102209Y-7105021D02*
X41254590Y-7105021D01*
X41254590Y-7105021D02*
X41330781Y-7143117D01*
X41330781Y-7143117D02*
X41368876Y-7219307D01*
X41368876Y-7219307D02*
X41368876Y-7295498D01*
X41368876Y-7295498D02*
X40987923Y-7371688D01*
X41711733Y-7105021D02*
X41711733Y-7638355D01*
X41711733Y-7181212D02*
X41749828Y-7143117D01*
X41749828Y-7143117D02*
X41826018Y-7105021D01*
X41826018Y-7105021D02*
X41940304Y-7105021D01*
X41940304Y-7105021D02*
X42016495Y-7143117D01*
X42016495Y-7143117D02*
X42054590Y-7219307D01*
X42054590Y-7219307D02*
X42054590Y-7638355D01*
X42778400Y-7600260D02*
X42702209Y-7638355D01*
X42702209Y-7638355D02*
X42549828Y-7638355D01*
X42549828Y-7638355D02*
X42473638Y-7600260D01*
X42473638Y-7600260D02*
X42435543Y-7562164D01*
X42435543Y-7562164D02*
X42397447Y-7485974D01*
X42397447Y-7485974D02*
X42397447Y-7257402D01*
X42397447Y-7257402D02*
X42435543Y-7181212D01*
X42435543Y-7181212D02*
X42473638Y-7143117D01*
X42473638Y-7143117D02*
X42549828Y-7105021D01*
X42549828Y-7105021D02*
X42702209Y-7105021D01*
X42702209Y-7105021D02*
X42778400Y-7143117D01*
X43235542Y-7638355D02*
X43159352Y-7600260D01*
X43159352Y-7600260D02*
X43121257Y-7562164D01*
X43121257Y-7562164D02*
X43083161Y-7485974D01*
X43083161Y-7485974D02*
X43083161Y-7257402D01*
X43083161Y-7257402D02*
X43121257Y-7181212D01*
X43121257Y-7181212D02*
X43159352Y-7143117D01*
X43159352Y-7143117D02*
X43235542Y-7105021D01*
X43235542Y-7105021D02*
X43349828Y-7105021D01*
X43349828Y-7105021D02*
X43426019Y-7143117D01*
X43426019Y-7143117D02*
X43464114Y-7181212D01*
X43464114Y-7181212D02*
X43502209Y-7257402D01*
X43502209Y-7257402D02*
X43502209Y-7485974D01*
X43502209Y-7485974D02*
X43464114Y-7562164D01*
X43464114Y-7562164D02*
X43426019Y-7600260D01*
X43426019Y-7600260D02*
X43349828Y-7638355D01*
X43349828Y-7638355D02*
X43235542Y-7638355D01*
X44187924Y-7638355D02*
X44187924Y-6838355D01*
X44187924Y-7600260D02*
X44111733Y-7638355D01*
X44111733Y-7638355D02*
X43959352Y-7638355D01*
X43959352Y-7638355D02*
X43883162Y-7600260D01*
X43883162Y-7600260D02*
X43845067Y-7562164D01*
X43845067Y-7562164D02*
X43806971Y-7485974D01*
X43806971Y-7485974D02*
X43806971Y-7257402D01*
X43806971Y-7257402D02*
X43845067Y-7181212D01*
X43845067Y-7181212D02*
X43883162Y-7143117D01*
X43883162Y-7143117D02*
X43959352Y-7105021D01*
X43959352Y-7105021D02*
X44111733Y-7105021D01*
X44111733Y-7105021D02*
X44187924Y-7143117D01*
X44873639Y-7600260D02*
X44797448Y-7638355D01*
X44797448Y-7638355D02*
X44645067Y-7638355D01*
X44645067Y-7638355D02*
X44568877Y-7600260D01*
X44568877Y-7600260D02*
X44530781Y-7524069D01*
X44530781Y-7524069D02*
X44530781Y-7219307D01*
X44530781Y-7219307D02*
X44568877Y-7143117D01*
X44568877Y-7143117D02*
X44645067Y-7105021D01*
X44645067Y-7105021D02*
X44797448Y-7105021D01*
X44797448Y-7105021D02*
X44873639Y-7143117D01*
X44873639Y-7143117D02*
X44911734Y-7219307D01*
X44911734Y-7219307D02*
X44911734Y-7295498D01*
X44911734Y-7295498D02*
X44530781Y-7371688D01*
X45254591Y-7638355D02*
X45254591Y-7105021D01*
X45254591Y-7257402D02*
X45292686Y-7181212D01*
X45292686Y-7181212D02*
X45330781Y-7143117D01*
X45330781Y-7143117D02*
X45406972Y-7105021D01*
X45406972Y-7105021D02*
X45483162Y-7105021D01*
X-28820506Y-45256456D02*
X-28820506Y-44608837D01*
X-28820506Y-44608837D02*
X-28858601Y-44532647D01*
X-28858601Y-44532647D02*
X-28896696Y-44494552D01*
X-28896696Y-44494552D02*
X-28972887Y-44456456D01*
X-28972887Y-44456456D02*
X-29125268Y-44456456D01*
X-29125268Y-44456456D02*
X-29201458Y-44494552D01*
X-29201458Y-44494552D02*
X-29239553Y-44532647D01*
X-29239553Y-44532647D02*
X-29277649Y-44608837D01*
X-29277649Y-44608837D02*
X-29277649Y-45256456D01*
X-29620505Y-45180266D02*
X-29658601Y-45218361D01*
X-29658601Y-45218361D02*
X-29734791Y-45256456D01*
X-29734791Y-45256456D02*
X-29925267Y-45256456D01*
X-29925267Y-45256456D02*
X-30001458Y-45218361D01*
X-30001458Y-45218361D02*
X-30039553Y-45180266D01*
X-30039553Y-45180266D02*
X-30077648Y-45104075D01*
X-30077648Y-45104075D02*
X-30077648Y-45027885D01*
X-30077648Y-45027885D02*
X-30039553Y-44913599D01*
X-30039553Y-44913599D02*
X-29582410Y-44456456D01*
X-29582410Y-44456456D02*
X-30077648Y-44456456D01*
X-834423Y25955944D02*
X-834423Y25308325D01*
X-834423Y25308325D02*
X-796328Y25232135D01*
X-796328Y25232135D02*
X-758233Y25194040D01*
X-758233Y25194040D02*
X-682042Y25155944D01*
X-682042Y25155944D02*
X-529661Y25155944D01*
X-529661Y25155944D02*
X-453471Y25194040D01*
X-453471Y25194040D02*
X-415376Y25232135D01*
X-415376Y25232135D02*
X-377280Y25308325D01*
X-377280Y25308325D02*
X-377280Y25955944D01*
X384623Y25955944D02*
X3671Y25955944D01*
X3671Y25955944D02*
X-34424Y25574992D01*
X-34424Y25574992D02*
X3671Y25613087D01*
X3671Y25613087D02*
X79861Y25651182D01*
X79861Y25651182D02*
X270337Y25651182D01*
X270337Y25651182D02*
X346528Y25613087D01*
X346528Y25613087D02*
X384623Y25574992D01*
X384623Y25574992D02*
X422718Y25498801D01*
X422718Y25498801D02*
X422718Y25308325D01*
X422718Y25308325D02*
X384623Y25232135D01*
X384623Y25232135D02*
X346528Y25194040D01*
X346528Y25194040D02*
X270337Y25155944D01*
X270337Y25155944D02*
X79861Y25155944D01*
X79861Y25155944D02*
X3671Y25194040D01*
X3671Y25194040D02*
X-34424Y25232135D01*
X36283239Y21238368D02*
X36740382Y21238368D01*
X36511810Y21238368D02*
X36511810Y20438368D01*
X36511810Y20438368D02*
X36588001Y20552653D01*
X36588001Y20552653D02*
X36664191Y20628844D01*
X36664191Y20628844D02*
X36740382Y20666939D01*
X35788000Y20438368D02*
X35711810Y20438368D01*
X35711810Y20438368D02*
X35635619Y20476463D01*
X35635619Y20476463D02*
X35597524Y20514558D01*
X35597524Y20514558D02*
X35559429Y20590749D01*
X35559429Y20590749D02*
X35521334Y20743130D01*
X35521334Y20743130D02*
X35521334Y20933606D01*
X35521334Y20933606D02*
X35559429Y21085987D01*
X35559429Y21085987D02*
X35597524Y21162177D01*
X35597524Y21162177D02*
X35635619Y21200273D01*
X35635619Y21200273D02*
X35711810Y21238368D01*
X35711810Y21238368D02*
X35788000Y21238368D01*
X35788000Y21238368D02*
X35864191Y21200273D01*
X35864191Y21200273D02*
X35902286Y21162177D01*
X35902286Y21162177D02*
X35940381Y21085987D01*
X35940381Y21085987D02*
X35978477Y20933606D01*
X35978477Y20933606D02*
X35978477Y20743130D01*
X35978477Y20743130D02*
X35940381Y20590749D01*
X35940381Y20590749D02*
X35902286Y20514558D01*
X35902286Y20514558D02*
X35864191Y20476463D01*
X35864191Y20476463D02*
X35788000Y20438368D01*
X35178476Y21238368D02*
X35178476Y20438368D01*
X35102286Y20933606D02*
X34873714Y21238368D01*
X34873714Y20705034D02*
X35178476Y21009796D01*
X34568953Y21238368D02*
X34378476Y21238368D01*
X34378476Y21238368D02*
X34378476Y21085987D01*
X34378476Y21085987D02*
X34454667Y21047892D01*
X34454667Y21047892D02*
X34530857Y20971701D01*
X34530857Y20971701D02*
X34568953Y20857415D01*
X34568953Y20857415D02*
X34568953Y20666939D01*
X34568953Y20666939D02*
X34530857Y20552653D01*
X34530857Y20552653D02*
X34454667Y20476463D01*
X34454667Y20476463D02*
X34340381Y20438368D01*
X34340381Y20438368D02*
X34188000Y20438368D01*
X34188000Y20438368D02*
X34073714Y20476463D01*
X34073714Y20476463D02*
X33997524Y20552653D01*
X33997524Y20552653D02*
X33959429Y20666939D01*
X33959429Y20666939D02*
X33959429Y20857415D01*
X33959429Y20857415D02*
X33997524Y20971701D01*
X33997524Y20971701D02*
X34073714Y21047892D01*
X34073714Y21047892D02*
X34149905Y21085987D01*
X34149905Y21085987D02*
X34149905Y21238368D01*
X34149905Y21238368D02*
X33959429Y21238368D01*
X35483226Y16498368D02*
X35749893Y16117415D01*
X35940369Y16498368D02*
X35940369Y15698368D01*
X35940369Y15698368D02*
X35635607Y15698368D01*
X35635607Y15698368D02*
X35559417Y15736463D01*
X35559417Y15736463D02*
X35521322Y15774558D01*
X35521322Y15774558D02*
X35483226Y15850749D01*
X35483226Y15850749D02*
X35483226Y15965034D01*
X35483226Y15965034D02*
X35521322Y16041225D01*
X35521322Y16041225D02*
X35559417Y16079320D01*
X35559417Y16079320D02*
X35635607Y16117415D01*
X35635607Y16117415D02*
X35940369Y16117415D01*
X34721322Y16498368D02*
X35178465Y16498368D01*
X34949893Y16498368D02*
X34949893Y15698368D01*
X34949893Y15698368D02*
X35026084Y15812653D01*
X35026084Y15812653D02*
X35102274Y15888844D01*
X35102274Y15888844D02*
X35178465Y15926939D01*
X25984371Y52541716D02*
X26365324Y52541716D01*
X25908181Y52313144D02*
X26174848Y53113144D01*
X26174848Y53113144D02*
X26441514Y52313144D01*
X26670085Y53036954D02*
X26708181Y53075049D01*
X26708181Y53075049D02*
X26784371Y53113144D01*
X26784371Y53113144D02*
X26974847Y53113144D01*
X26974847Y53113144D02*
X27051038Y53075049D01*
X27051038Y53075049D02*
X27089133Y53036954D01*
X27089133Y53036954D02*
X27127228Y52960763D01*
X27127228Y52960763D02*
X27127228Y52884573D01*
X27127228Y52884573D02*
X27089133Y52770287D01*
X27089133Y52770287D02*
X26631990Y52313144D01*
X26631990Y52313144D02*
X27127228Y52313144D01*
D11*
%TO.C,*%
X38628400Y-7273200D02*
G75*
G03*
X38128400Y-7273200I-250000J0D01*
G01*
X38128400Y-7273200D02*
G75*
G03*
X38628400Y-7273200I250000J0D01*
G01*
X41378400Y-10548200D02*
G75*
G03*
X40878400Y-10548200I-250000J0D01*
G01*
X40878400Y-10548200D02*
G75*
G03*
X41378400Y-10548200I250000J0D01*
G01*
D12*
X10567802Y40021901D02*
X7827802Y40021899D01*
X7827802Y40021899D02*
X7827809Y33481899D01*
X7827809Y33481899D02*
X10567809Y33481901D01*
X10567809Y33481901D02*
X10567802Y40021901D01*
X9197801Y40791900D02*
X9197802Y40021900D01*
X9197809Y32711900D02*
X9197809Y33481900D01*
X-64470400Y-21519800D02*
X-64144800Y-21519800D01*
X-64470400Y-22539800D02*
X-64144800Y-22539800D01*
X-70820300Y-20069200D02*
X-70494700Y-20069200D01*
X-70820300Y-21089200D02*
X-70494700Y-21089200D01*
D11*
X-46523200Y28060000D02*
X-46523200Y-5940000D01*
X-46523200Y-5940000D02*
X-21123200Y-5940000D01*
X-21123200Y28060000D02*
X-21123200Y-5940000D01*
X-46523200Y28060000D02*
X-21123200Y28060000D01*
X38593400Y-13043200D02*
X43753400Y-13043200D01*
X43753400Y-8055200D02*
X43753400Y-13043200D01*
X38593400Y-8055200D02*
X38593400Y-13043200D01*
X38593400Y-8055200D02*
X43753400Y-8055200D01*
D13*
X-25705025Y-43136622D02*
X-25701618Y-43110740D01*
X-25701618Y-43110740D02*
X-25691627Y-43086622D01*
X-25691627Y-43086622D02*
X-25675736Y-43065911D01*
X-25675736Y-43065911D02*
X-25655025Y-43050020D01*
X-25655025Y-43050020D02*
X-25630907Y-43040030D01*
X-25630907Y-43040030D02*
X-25605025Y-43036622D01*
X-25605025Y-43036622D02*
X-25579143Y-43040030D01*
X-25579143Y-43040030D02*
X-25555025Y-43050020D01*
X-25555025Y-43050020D02*
X-25534314Y-43065912D01*
X-25534314Y-43065912D02*
X-25518422Y-43086623D01*
X-25518422Y-43086623D02*
X-25508432Y-43110741D01*
X-25508432Y-43110741D02*
X-25505025Y-43136623D01*
X-25505025Y-43136623D02*
X-25508433Y-43162504D01*
X-25508433Y-43162504D02*
X-25518423Y-43186623D01*
X-25518423Y-43186623D02*
X-25534315Y-43207333D01*
X-25534315Y-43207333D02*
X-25555025Y-43223225D01*
X-25555025Y-43223225D02*
X-25579143Y-43233215D01*
X-25579143Y-43233215D02*
X-25605025Y-43236622D01*
X-25605025Y-43236622D02*
X-25630907Y-43233215D01*
X-25630907Y-43233215D02*
X-25655025Y-43223225D01*
X-25655025Y-43223225D02*
X-25675736Y-43207333D01*
X-25675736Y-43207333D02*
X-25691628Y-43186622D01*
X-25691628Y-43186622D02*
X-25701618Y-43162504D01*
X-25701618Y-43162504D02*
X-25705025Y-43136622D01*
D14*
X-26385027Y-43846620D02*
X-41625027Y-43846580D01*
X-41625027Y-43846580D02*
X-41624973Y-23526580D01*
X-41624973Y-23526580D02*
X-26384973Y-23526620D01*
X-26384973Y-23526620D02*
X-26385027Y-43846620D01*
D15*
X-26135028Y-44096621D02*
X-26134972Y-23276621D01*
X-26134972Y-23276621D02*
X-41874972Y-23276579D01*
X-41874972Y-23276579D02*
X-41875028Y-44096579D01*
X-41875028Y-44096579D02*
X-26135028Y-44096621D01*
D16*
X-3399900Y23486100D02*
X-3549900Y23486100D01*
D14*
X-2669900Y23906100D02*
X-2899900Y23906100D01*
X870100Y23906100D02*
X1100100Y23906100D01*
X-2719900Y19866100D02*
X-2899900Y19866100D01*
X920100Y19866100D02*
X1100100Y19866100D01*
D12*
X38619896Y17133205D02*
X38619904Y19873205D01*
X38619904Y19873205D02*
X32079904Y19873222D01*
X32079904Y19873222D02*
X32079896Y17133222D01*
X32079896Y17133222D02*
X38619896Y17133205D01*
X39389900Y18503203D02*
X38619900Y18503205D01*
X31309900Y18503224D02*
X32079900Y18503222D01*
D14*
X23410800Y49533300D02*
X26710800Y49533300D01*
X26710800Y49533300D02*
X35702800Y49533300D01*
X35702800Y49533300D02*
X52300800Y49533300D01*
X52300800Y49533300D02*
X64100800Y49533300D01*
X64100800Y49533300D02*
X76750800Y49533300D01*
X76750800Y49533300D02*
X76750800Y-52066700D01*
X76750800Y-52066700D02*
X23410800Y-52066700D01*
X23410800Y-52066700D02*
X23410800Y49533300D01*
X64100800Y49533300D02*
X64100800Y55883300D01*
X64100800Y55883300D02*
X52300800Y55883300D01*
X52300800Y55883300D02*
X52300800Y49533300D01*
X26710800Y49533300D02*
X26710800Y51343300D01*
X26710800Y51343300D02*
X35702800Y51343300D01*
X35702800Y51343300D02*
X35702800Y49533300D01*
X23410800Y49533300D02*
X26710800Y49533300D01*
X26710800Y49533300D02*
X35702800Y49533300D01*
X35702800Y49533300D02*
X52300800Y49533300D01*
X52300800Y49533300D02*
X64100800Y49533300D01*
X64100800Y49533300D02*
X76750800Y49533300D01*
X76750800Y49533300D02*
X76750800Y-52066700D01*
X76750800Y-52066700D02*
X23410800Y-52066700D01*
X23410800Y-52066700D02*
X23410800Y49533300D01*
X64100800Y49533300D02*
X64100800Y55883300D01*
X64100800Y55883300D02*
X52300800Y55883300D01*
X52300800Y55883300D02*
X52300800Y49533300D01*
X26710800Y49533300D02*
X26710800Y51343300D01*
X26710800Y51343300D02*
X35702800Y51343300D01*
X35702800Y51343300D02*
X35702800Y49533300D01*
D15*
X23160800Y49783300D02*
X26460800Y49783300D01*
X26460800Y49783300D02*
X26460800Y51593300D01*
X26460800Y51593300D02*
X35952800Y51593300D01*
X35952800Y51593300D02*
X35952800Y49783300D01*
X35952800Y49783300D02*
X52050800Y49783300D01*
X52050800Y49783300D02*
X52050800Y56133300D01*
X52050800Y56133300D02*
X64350800Y56133300D01*
X64350800Y56133300D02*
X64350800Y49783300D01*
X64350800Y49783300D02*
X77000800Y49783300D01*
X77000800Y49783300D02*
X77000800Y-52316700D01*
X77000800Y-52316700D02*
X23160800Y-52316700D01*
X23160800Y-52316700D02*
X23160800Y49783300D01*
%TD*%
M02*
