M48
; DRILL file {KiCad 7.0.11-7.0.11~ubuntu20.04.1} date Thu May  9 22:56:52 2024
; FORMAT={-:-/ absolute / metric / decimal}
; #@! TF.CreationDate,2024-05-09T22:56:52+00:00
; #@! TF.GenerationSoftware,Kicad,Pcbnew,7.0.11-7.0.11~ubuntu20.04.1
; #@! TF.FileFunction,MixedPlating,1,4
FMAT,2
METRIC
; #@! TA.AperFunction,Plated,PTH,ComponentDrill
T1C0.300
; #@! TA.AperFunction,Plated,PTH,ComponentDrill
T2C0.800
; #@! TA.AperFunction,Plated,PTH,ComponentDrill
T3C0.850
; #@! TA.AperFunction,Plated,PTH,ComponentDrill
T4C1.000
; #@! TA.AperFunction,Plated,PTH,ComponentDrill
T5C1.020
; #@! TA.AperFunction,Plated,PTH,ComponentDrill
T6C2.300
; #@! TA.AperFunction,NonPlated,NPTH,ComponentDrill
T7C3.200
%
G90
G05
T1
X-69.084Y-31.472
X-57.974Y-17.301
X-55.277Y-17.301
X-50.956Y-29.877
X-44.11Y-26.209
X-42.453Y-33.936
X-12.994Y-42.142
X-12.944Y-11.523
X-12.666Y-16.069
X-8.468Y-43.252
X-6.248Y21.086
X-6.248Y17.079
X-6.248Y6.353
X-4.237Y23.956
X-4.018Y24.46
X-3.462Y22.117
X1.0Y15.497
X2.582Y17.671
X3.155Y29.536
X4.103Y19.218
X5.703Y19.053
X6.337Y-23.363
X6.741Y21.886
X6.741Y15.214
X9.037Y6.353
X9.198Y26.328
X9.795Y16.513
X10.422Y-45.834
X13.124Y18.037
X13.775Y-30.861
X28.429Y-27.677
X29.076Y-44.798
X31.031Y-42.698
X31.765Y-27.677
X32.664Y-33.274
X33.571Y-25.264
X34.638Y-30.861
X34.639Y-15.592
X34.639Y-21.587
X34.639Y-25.264
X34.639Y-15.592
X36.07Y-13.967
X36.111Y-27.161
X36.111Y-29.207
X39.97Y-27.161
X40.49Y-35.505
X42.756Y-31.747
X44.139Y-42.698
X44.529Y-41.496
X45.091Y-40.037
X48.752Y18.037
X50.357Y-40.637
X53.891Y-43.061
X64.373Y30.737
T2
X9.198Y41.832
X9.198Y31.672
X30.27Y18.503
X40.43Y18.503
T3
X25.951Y21.593
X25.951Y19.053
X25.951Y16.513
X25.951Y13.973
X25.951Y11.433
X25.951Y8.893
X25.951Y6.353
X25.951Y3.813
X25.951Y-1.267
X25.951Y-3.807
X25.951Y-6.347
X25.951Y-8.887
X25.951Y-11.427
X25.951Y-13.967
X25.951Y-16.507
X25.951Y-19.047
X25.951Y-24.127
X25.951Y-26.667
X25.951Y-29.207
X25.951Y-31.747
X25.951Y-34.287
X25.951Y-36.827
X25.951Y-39.113
X25.951Y-41.653
X31.031Y-44.447
X31.031Y-46.987
X33.571Y-44.447
X33.571Y-46.987
X36.111Y-44.447
X36.111Y-46.987
X38.651Y-44.447
X38.651Y-46.987
X41.191Y-44.447
X41.191Y-46.987
X43.731Y-44.447
X43.731Y-46.987
X46.271Y-44.447
X46.271Y-46.987
X48.811Y-44.447
X48.811Y-46.987
X51.351Y-44.447
X51.351Y-46.987
X53.891Y-44.447
X53.891Y-46.987
X56.431Y-44.447
X56.431Y-46.987
X58.971Y-44.447
X58.971Y-46.987
X61.511Y-44.447
X61.511Y-46.987
X64.051Y-44.447
X64.051Y-46.987
X66.591Y-44.447
X66.591Y-46.987
X69.131Y-44.447
X69.131Y-46.987
X71.671Y-44.447
X71.671Y-46.987
X74.211Y30.737
X74.211Y28.197
X74.211Y25.657
X74.211Y23.117
X74.211Y20.577
X74.211Y18.037
X74.211Y15.497
X74.211Y12.957
X74.211Y10.417
X74.211Y7.877
X74.211Y3.813
X74.211Y1.273
X74.211Y-1.267
X74.211Y-3.807
X74.211Y-6.347
X74.211Y-8.887
X74.211Y-11.427
X74.211Y-13.967
X74.211Y-19.047
X74.211Y-21.587
X74.211Y-24.127
X74.211Y-26.667
X74.211Y-29.207
X74.211Y-31.747
X74.211Y-34.287
X74.211Y-36.827
X74.211Y-44.447
X74.211Y-46.987
T4
X-43.983Y-3.94
X-41.443Y-3.94
X-38.903Y-3.94
X-36.363Y-3.94
X-33.823Y-3.94
X-31.283Y-3.94
X-28.743Y-3.94
X-26.203Y-3.94
X-23.663Y-3.94
T5
X-40.355Y-42.577
X-40.355Y-40.037
X-40.355Y-37.497
X-40.355Y-34.957
X-40.355Y-32.417
X-40.355Y-29.877
X-40.355Y-27.337
X-40.355Y-24.797
X-27.655Y-42.577
X-27.655Y-40.037
X-27.655Y-37.497
X-27.655Y-34.957
X-27.655Y-32.417
X-27.655Y-29.877
X-27.655Y-27.337
X-27.655Y-24.797
T6
X-43.973Y25.556
X-23.673Y25.56
T7
X25.951Y35.563
X25.951Y-46.987
X31.031Y-16.507
X58.971Y-16.507
X74.211Y34.293
X74.211Y-40.637
M30
