%TF.GenerationSoftware,Flux,Pcbnew,7.0.11-7.0.11~ubuntu20.04.1*%
%TF.CreationDate,2024-05-09T22:56:52+00:00*%
%TF.ProjectId,input,696e7075-742e-46b6-9963-61645f706362,rev?*%
%TF.SameCoordinates,Original*%
%TF.FileFunction,Copper,L4,Bot*%
%TF.FilePolarity,Positive*%
%FSLAX46Y46*%
G04 Gerber Fmt 4.6, Leading zero omitted, Abs format (unit mm)*
G04 Filename: desalinator*
G04 Build it with Flux! Visit our site at: https://www.flux.ai (PCBNEW 7.0.11-7.0.11~ubuntu20.04.1) date 2024-05-09 22:56:52*
%MOMM*%
%LPD*%
G01*
G04 APERTURE LIST*
G04 Aperture macros list*
%AMFreePoly0*
4,1,5,0.765000,-0.765000,-0.765000,-0.765000,-0.765000,0.765000,0.765000,0.765000,0.765000,-0.765000,0.765000,-0.765000,$1*%
%AMFreePoly1*
4,1,5,0.679000,-0.679000,-0.679000,-0.679000,-0.679000,0.679000,0.679000,0.679000,0.679000,-0.679000,0.679000,-0.679000,$1*%
%AMFreePoly2*
4,1,129,0.022069,0.299187,0.036723,0.297744,0.051289,0.295583,0.065730,0.292711,0.080014,0.289133,0.094105,0.284858,0.107969,0.279898,0.121572,0.274263,0.134883,0.267967,0.147869,0.261026,0.160499,0.253456,0.172742,0.245275,0.184569,0.236504,0.195952,0.227163,0.206862,0.217274,0.217274,0.206862,0.227163,0.195952,0.236504,0.184569,0.245275,0.172742,0.253456,0.160499,
0.261026,0.147869,0.267967,0.134883,0.274263,0.121572,0.279898,0.107969,0.284858,0.094105,0.289133,0.080014,0.292711,0.065730,0.295583,0.051289,0.297744,0.036723,0.299187,0.022069,0.299910,0.007362,0.299910,-0.007362,0.299187,-0.022069,0.297744,-0.036723,0.295583,-0.051289,0.292711,-0.065730,0.289133,-0.080014,0.284858,-0.094105,0.279898,-0.107969,0.274263,-0.121572,
0.267967,-0.134883,0.261026,-0.147869,0.253456,-0.160499,0.245275,-0.172742,0.236504,-0.184569,0.227163,-0.195952,0.217274,-0.206862,0.206862,-0.217274,0.195952,-0.227163,0.184569,-0.236504,0.172742,-0.245275,0.160499,-0.253456,0.147869,-0.261026,0.134883,-0.267967,0.121572,-0.274263,0.107969,-0.279898,0.094105,-0.284858,0.080014,-0.289133,0.065730,-0.292711,0.051289,-0.295583,
0.036723,-0.297744,0.022069,-0.299187,0.007362,-0.299910,-0.007362,-0.299910,-0.022069,-0.299187,-0.036723,-0.297744,-0.051289,-0.295583,-0.065730,-0.292711,-0.080014,-0.289133,-0.094105,-0.284858,-0.107969,-0.279898,-0.121572,-0.274263,-0.134883,-0.267967,-0.147869,-0.261026,-0.160499,-0.253456,-0.172742,-0.245275,-0.184569,-0.236504,-0.195952,-0.227163,-0.206862,-0.217274,-0.217274,-0.206862,
-0.227163,-0.195952,-0.236504,-0.184569,-0.245275,-0.172742,-0.253456,-0.160499,-0.261026,-0.147869,-0.267967,-0.134883,-0.274263,-0.121572,-0.279898,-0.107969,-0.284858,-0.094105,-0.289133,-0.080014,-0.292711,-0.065730,-0.295583,-0.051289,-0.297744,-0.036723,-0.299187,-0.022069,-0.299910,-0.007362,-0.299910,0.007362,-0.299187,0.022069,-0.297744,0.036723,-0.295583,0.051289,-0.292711,0.065730,
-0.289133,0.080014,-0.284858,0.094105,-0.279898,0.107969,-0.274263,0.121572,-0.267967,0.134883,-0.261026,0.147869,-0.253456,0.160499,-0.245275,0.172742,-0.236504,0.184569,-0.227163,0.195952,-0.217274,0.206862,-0.206862,0.217274,-0.195952,0.227163,-0.184569,0.236504,-0.172742,0.245275,-0.160499,0.253456,-0.147869,0.261026,-0.134883,0.267967,-0.121572,0.274263,-0.107969,0.279898,
-0.094105,0.284858,-0.080014,0.289133,-0.065730,0.292711,-0.051289,0.295583,-0.036723,0.297744,-0.022069,0.299187,-0.007362,0.299910,0.007362,0.299910,0.022069,0.299187,0.022069,0.299187,$1*%
G04 Aperture macros list end*
%TA.AperFunction,ComponentPad*%
%ADD10C,1.600000*%
%TD*%
%TA.AperFunction,ComponentPad*%
%ADD11C,3.000000*%
%TD*%
%TA.AperFunction,ComponentPad*%
%ADD12C,1.700000*%
%TD*%
%TA.AperFunction,ComponentPad*%
%ADD13C,1.530000*%
%TD*%
%TA.AperFunction,ComponentPad*%
%ADD14FreePoly0,180.000000*%
%TD*%
%TA.AperFunction,ComponentPad*%
%ADD15C,1.358000*%
%TD*%
%TA.AperFunction,ComponentPad*%
%ADD16FreePoly1,0.000000*%
%TD*%
%TA.AperFunction,ComponentPad*%
%ADD17FreePoly2,0.000000*%
%TD*%
%TA.AperFunction,Conductor*%
%ADD18C,0.254000*%
%TD*%
G04 APERTURE END LIST*
D10*
%TO.P,,28a2df93-dd75-46d1-b579-001c78f8624b__4918388c-59ea-4908-8533-57be0b76eedd*%
%TO.N,N/C*%
X9197800Y41831900D03*
%TO.P,,28a2df93-dd75-46d1-b579-001c78f8624b__572510a2-9917-4ff7-b190-a81f8e6e439e*%
X9197810Y31671900D03*
D11*
%TO.P,,6d0d90fc-7ab4-45e9-824e-0f48d1d6e792__5344dbea-4972-4d9a-9afe-0cc67a2632b1*%
X-43973200Y25556000D03*
%TO.P,,6d0d90fc-7ab4-45e9-824e-0f48d1d6e792__6af219ee-532e-4a53-aeb2-854a1d24d9fa*%
X-23673200Y25560000D03*
D12*
%TO.P,,6d0d90fc-7ab4-45e9-824e-0f48d1d6e792__1beba3f9-b9fb-4766-bc2f-69993f46aa93*%
X-36363200Y-3940000D03*
%TO.P,,6d0d90fc-7ab4-45e9-824e-0f48d1d6e792__2d6c966d-6eb2-47af-b688-ea6ed0dfe8e5*%
X-28743200Y-3940000D03*
%TO.P,,6d0d90fc-7ab4-45e9-824e-0f48d1d6e792__3f2c33af-8e98-4f7c-8d47-f830d697f528*%
X-43983200Y-3940000D03*
%TO.P,,6d0d90fc-7ab4-45e9-824e-0f48d1d6e792__64b1d31f-7000-424d-b975-9230f871929c*%
X-31283200Y-3940000D03*
%TO.P,,6d0d90fc-7ab4-45e9-824e-0f48d1d6e792__79683a50-c527-4185-aacd-6824e444a1dd*%
X-23663200Y-3940000D03*
%TO.P,,6d0d90fc-7ab4-45e9-824e-0f48d1d6e792__8ec01cc0-1f78-4934-9346-db01263fd15a*%
X-33823200Y-3940000D03*
%TO.P,,6d0d90fc-7ab4-45e9-824e-0f48d1d6e792__ac28dfa4-0165-4cf6-904d-95df64790e54*%
X-26203200Y-3940000D03*
%TO.P,,6d0d90fc-7ab4-45e9-824e-0f48d1d6e792__d60e0523-d95b-4864-a2ad-400b19ff00be*%
X-38903200Y-3940000D03*
%TO.P,,6d0d90fc-7ab4-45e9-824e-0f48d1d6e792__e4f9b532-60c9-4bff-980e-3269a38c7594*%
X-41443200Y-3940000D03*
D13*
%TO.P,,97004494-60e2-48bc-8190-4954f15724bf__0e26d224-52aa-491b-adac-8fb213d8da56*%
X-27654990Y-29876617D03*
%TO.P,,97004494-60e2-48bc-8190-4954f15724bf__25003eda-0113-46df-8653-e3b6548923bd*%
X-40355003Y-34956583D03*
%TO.P,,97004494-60e2-48bc-8190-4954f15724bf__4cd314af-0b7f-4365-b024-df9e5601b340*%
X-40355017Y-40036583D03*
D14*
%TO.P,,97004494-60e2-48bc-8190-4954f15724bf__5d4dfcf5-53f6-44db-a328-d0e96bb1c797*%
X-27655024Y-42576617D03*
D13*
%TO.P,,97004494-60e2-48bc-8190-4954f15724bf__5d782940-321c-40ea-8e6b-b90e346a44d4*%
X-27654983Y-27336617D03*
%TO.P,,97004494-60e2-48bc-8190-4954f15724bf__623b6228-53ad-49b6-9303-0301733268af*%
X-27655017Y-40036617D03*
%TO.P,,97004494-60e2-48bc-8190-4954f15724bf__63783dbf-c05f-47d4-b043-bcce8c72d5d6*%
X-40354976Y-24796583D03*
%TO.P,,97004494-60e2-48bc-8190-4954f15724bf__6a6db934-56d3-432a-bae7-8e4ca7c38879*%
X-40355010Y-37496583D03*
%TO.P,,97004494-60e2-48bc-8190-4954f15724bf__70c4a5d6-8571-4f49-8c16-9a895f79b847*%
X-40354983Y-27336583D03*
%TO.P,,97004494-60e2-48bc-8190-4954f15724bf__755fcdd4-e8c0-4db7-8789-7f9c34d4c6c9*%
X-27655010Y-37496617D03*
%TO.P,,97004494-60e2-48bc-8190-4954f15724bf__9ebb5df2-ff91-438e-949e-d8ca29ba4ec0*%
X-40354990Y-29876583D03*
%TO.P,,97004494-60e2-48bc-8190-4954f15724bf__aa767fd2-e2c8-42e2-b49c-cf96704998ab*%
X-27654997Y-32416617D03*
%TO.P,,97004494-60e2-48bc-8190-4954f15724bf__c32b00ff-28cf-4ce0-93a3-dce239c0df78*%
X-40354997Y-32416583D03*
%TO.P,,97004494-60e2-48bc-8190-4954f15724bf__d9f467f5-915c-4754-a979-9d7c1fa69050*%
X-40355024Y-42576583D03*
%TO.P,,97004494-60e2-48bc-8190-4954f15724bf__ebdd7e72-97ef-40f6-b87f-061d86bfbefb*%
X-27655003Y-34956617D03*
%TO.P,,97004494-60e2-48bc-8190-4954f15724bf__fb14cbf6-f285-4edd-aaa1-86d492a99ba3*%
X-27654976Y-24796617D03*
D10*
%TO.P,,f63404d1-05cd-49fd-a4a5-2942484df8c9__4918388c-59ea-4908-8533-57be0b76eedd*%
X40429900Y18503200D03*
%TO.P,,f63404d1-05cd-49fd-a4a5-2942484df8c9__572510a2-9917-4ff7-b190-a81f8e6e439e*%
X30269900Y18503227D03*
D15*
%TO.P,,fed82bbc-0042-406b-909a-d4c5d9903564__0042b18e-a087-4d23-80f7-9a64f7e6f5f6*%
X74210800Y-19046700D03*
%TO.P,,fed82bbc-0042-406b-909a-d4c5d9903564__0293c64f-6e2e-4b92-bf5d-ad193ed4396e*%
X74210800Y-13966700D03*
%TO.P,,fed82bbc-0042-406b-909a-d4c5d9903564__047b1910-ef39-4c18-b32e-256941c02c9a*%
X71670800Y-44446700D03*
%TO.P,,fed82bbc-0042-406b-909a-d4c5d9903564__04e0c990-6161-4fe5-bf14-04e5b12dcf4c*%
X46270800Y-46986700D03*
%TO.P,,fed82bbc-0042-406b-909a-d4c5d9903564__07e590a8-3737-438f-9bee-a57df74e3d49*%
X74210800Y-44446700D03*
%TO.P,,fed82bbc-0042-406b-909a-d4c5d9903564__09bcae84-8a1b-4aa1-b402-9015548ebb63*%
X25950800Y13973300D03*
%TO.P,,fed82bbc-0042-406b-909a-d4c5d9903564__0dc18b46-b66e-4569-a2be-82c352a38b50*%
X41190800Y-46986700D03*
%TO.P,,fed82bbc-0042-406b-909a-d4c5d9903564__1d73eece-d052-4e72-ac32-dc00b63ec494*%
X48810800Y-46986700D03*
%TO.P,,fed82bbc-0042-406b-909a-d4c5d9903564__20cec797-46fd-4cbc-92f2-f9ac341a25d4*%
X74210800Y28197300D03*
%TO.P,,fed82bbc-0042-406b-909a-d4c5d9903564__210a2e6a-e8c0-4609-aa44-79f1ef3dd85d*%
X69130800Y-44446700D03*
%TO.P,,fed82bbc-0042-406b-909a-d4c5d9903564__23f04003-1d38-4dcd-9062-838a95c09699*%
X36110800Y-44446700D03*
%TO.P,,fed82bbc-0042-406b-909a-d4c5d9903564__25869777-2851-429e-b0ee-c313c4a5d174*%
X25950800Y-29206700D03*
%TO.P,,fed82bbc-0042-406b-909a-d4c5d9903564__289e32a6-6893-47ab-b621-afade4dca05d*%
X25950800Y-8886700D03*
%TO.P,,fed82bbc-0042-406b-909a-d4c5d9903564__2b603909-c27b-4879-8758-2afa14f8a5bf*%
X74210800Y-1266700D03*
%TO.P,,fed82bbc-0042-406b-909a-d4c5d9903564__2ceac08a-f11a-40d5-969a-7d8a47f24fc5*%
X25950800Y-16506700D03*
%TO.P,,fed82bbc-0042-406b-909a-d4c5d9903564__2dceff6d-a1fc-416b-9cfa-1867d633bbbf*%
X74210800Y-29206700D03*
%TO.P,,fed82bbc-0042-406b-909a-d4c5d9903564__2e15523f-c36d-4c70-8a8e-b802f9e022f0*%
X41190800Y-44446700D03*
D16*
%TO.P,,fed82bbc-0042-406b-909a-d4c5d9903564__2fcccd09-9b9d-4619-82b4-3e39b9adf76d*%
X25950800Y21593300D03*
D15*
%TO.P,,fed82bbc-0042-406b-909a-d4c5d9903564__308200d7-3341-4ff6-b9f9-383ba2749077*%
X58970800Y-46986700D03*
%TO.P,,fed82bbc-0042-406b-909a-d4c5d9903564__34cc6a7b-c1f5-4987-963c-8c859dd9821e*%
X51350800Y-44446700D03*
%TO.P,,fed82bbc-0042-406b-909a-d4c5d9903564__35f4d315-1e77-471b-9289-e59d92eb39f8*%
X25950800Y-13966700D03*
%TO.P,,fed82bbc-0042-406b-909a-d4c5d9903564__375101a7-26a5-44b6-8c35-aa431871b423*%
X56430800Y-46986700D03*
%TO.P,,fed82bbc-0042-406b-909a-d4c5d9903564__3b24bcaf-6921-4078-8c85-30a8ed53c04d*%
X31030800Y-44446700D03*
%TO.P,,fed82bbc-0042-406b-909a-d4c5d9903564__3b280b86-8cca-4672-ab1e-bd9d38149c7c*%
X74210800Y-3806700D03*
%TO.P,,fed82bbc-0042-406b-909a-d4c5d9903564__40606d71-d92f-4399-81f3-2629fb0061c3*%
X74210800Y-21586700D03*
%TO.P,,fed82bbc-0042-406b-909a-d4c5d9903564__429fcb2e-3f52-48b8-afe5-5ab93e4847a9*%
X46270800Y-44446700D03*
%TO.P,,fed82bbc-0042-406b-909a-d4c5d9903564__48a0cdda-03ce-45d5-89ab-5d02d86b8628*%
X64050800Y-44446700D03*
%TO.P,,fed82bbc-0042-406b-909a-d4c5d9903564__49726646-0351-4ccf-86ae-fd4e0a3d5901*%
X25950800Y8893300D03*
%TO.P,,fed82bbc-0042-406b-909a-d4c5d9903564__49f83d7f-cd1d-476d-8b5e-28592237f061*%
X33570800Y-44446700D03*
%TO.P,,fed82bbc-0042-406b-909a-d4c5d9903564__501bc197-e955-433f-b42d-92bbb4e6d45f*%
X33570800Y-46986700D03*
%TO.P,,fed82bbc-0042-406b-909a-d4c5d9903564__52aa284e-1b8e-42eb-a148-c3dfba001771*%
X74210800Y-8886700D03*
%TO.P,,fed82bbc-0042-406b-909a-d4c5d9903564__5578b5a9-d1e1-42d1-ae6e-89feb9ba3bc1*%
X74210800Y18037300D03*
%TO.P,,fed82bbc-0042-406b-909a-d4c5d9903564__58bf6d30-58d2-4d1b-8d63-4023833808fc*%
X74210800Y25657300D03*
%TO.P,,fed82bbc-0042-406b-909a-d4c5d9903564__5a754f38-0306-4f3f-8757-ff0b43ac6fb5*%
X74210800Y23117300D03*
%TO.P,,fed82bbc-0042-406b-909a-d4c5d9903564__5d62f110-d3f1-41f8-a16d-a4954574604f*%
X38650800Y-44446700D03*
%TO.P,,fed82bbc-0042-406b-909a-d4c5d9903564__60a52164-881e-47e7-939d-e192f1759b9c*%
X74210800Y-46986700D03*
%TO.P,,fed82bbc-0042-406b-909a-d4c5d9903564__6be642c0-61b7-4446-90d6-8104c6fae698*%
X25950800Y-34286700D03*
%TO.P,,fed82bbc-0042-406b-909a-d4c5d9903564__6e810035-5310-4de0-ada0-d1924d5b99f2*%
X74210800Y-6346700D03*
%TO.P,,fed82bbc-0042-406b-909a-d4c5d9903564__72234cde-73cf-4347-a30d-7f9dd41c2023*%
X74210800Y1273300D03*
%TO.P,,fed82bbc-0042-406b-909a-d4c5d9903564__7360ec78-2a70-49e1-9533-1767082ab15c*%
X43730800Y-46986700D03*
%TO.P,,fed82bbc-0042-406b-909a-d4c5d9903564__73e60b4a-c89f-4fa1-bff0-af0f3123a588*%
X53890800Y-46986700D03*
%TO.P,,fed82bbc-0042-406b-909a-d4c5d9903564__764d6ed2-3f7b-4f10-9cb0-2e9b8a49415b*%
X25950800Y-1266700D03*
%TO.P,,fed82bbc-0042-406b-909a-d4c5d9903564__82d7b5e4-d5dd-4974-ab37-abe6d17333ee*%
X74210800Y20577300D03*
%TO.P,,fed82bbc-0042-406b-909a-d4c5d9903564__89000485-7623-4c6e-89b1-00ba1da7c1c7*%
X25950800Y19053300D03*
%TO.P,,fed82bbc-0042-406b-909a-d4c5d9903564__8a0b3681-1f40-4c13-a6ae-ca9d0ba9d6a0*%
X25950800Y3813300D03*
%TO.P,,fed82bbc-0042-406b-909a-d4c5d9903564__8d1c4dc0-3158-4ece-9447-f26ce08a6481*%
X31030800Y-46986700D03*
%TO.P,,fed82bbc-0042-406b-909a-d4c5d9903564__8e2b9f9b-ca77-4cb2-aa3c-d438f640cb11*%
X74210800Y-36826700D03*
%TO.P,,fed82bbc-0042-406b-909a-d4c5d9903564__90be7cf6-9eb3-4b58-8faa-46868be008d7*%
X74210800Y3813300D03*
%TO.P,,fed82bbc-0042-406b-909a-d4c5d9903564__939dae8f-6cd7-49e9-a22c-fc2cb884c01c*%
X48810800Y-44446700D03*
%TO.P,,fed82bbc-0042-406b-909a-d4c5d9903564__939f73e3-6f8f-4c4f-a8e6-ad4839c1c71a*%
X53890800Y-44446700D03*
%TO.P,,fed82bbc-0042-406b-909a-d4c5d9903564__946f7473-a677-48c2-b7af-da51f746c7c1*%
X25950800Y-36826700D03*
%TO.P,,fed82bbc-0042-406b-909a-d4c5d9903564__95630f78-c112-4caf-8335-71f9f0e6d271*%
X25950800Y-6346700D03*
%TO.P,,fed82bbc-0042-406b-909a-d4c5d9903564__9a10b2f4-c668-408d-907f-2be8f992452f*%
X61510800Y-46986700D03*
%TO.P,,fed82bbc-0042-406b-909a-d4c5d9903564__a554d92a-8be3-4d43-8327-5a13d102d1db*%
X74210800Y15497300D03*
%TO.P,,fed82bbc-0042-406b-909a-d4c5d9903564__a57068c3-d3b1-4dea-96de-126119589660*%
X56430800Y-44446700D03*
%TO.P,,fed82bbc-0042-406b-909a-d4c5d9903564__a62e9a53-dff3-42fc-8df3-1e3c77f457b6*%
X51350800Y-46986700D03*
%TO.P,,fed82bbc-0042-406b-909a-d4c5d9903564__a9e697cf-9885-4868-87a2-dc933bcf296e*%
X25950800Y6353300D03*
%TO.P,,fed82bbc-0042-406b-909a-d4c5d9903564__b08341ab-54da-42a0-bf79-c6d691f2ad91*%
X69130800Y-46986700D03*
%TO.P,,fed82bbc-0042-406b-909a-d4c5d9903564__b11e3e16-8dbe-4e5f-adad-fc0a1926902e*%
X25950800Y-39112700D03*
%TO.P,,fed82bbc-0042-406b-909a-d4c5d9903564__b663cbfb-7d3a-4850-bb45-d91ba4809ed5*%
X36110800Y-46986700D03*
%TO.P,,fed82bbc-0042-406b-909a-d4c5d9903564__b6666819-98ef-4648-adb6-4a2601f16cdd*%
X25950800Y-11426700D03*
%TO.P,,fed82bbc-0042-406b-909a-d4c5d9903564__b7b57202-f572-4ef9-b44d-6d6c5aeaef2c*%
X74210800Y30737300D03*
%TO.P,,fed82bbc-0042-406b-909a-d4c5d9903564__b7ef69bb-a6db-4038-af9e-edf5a8b3b47c*%
X74210800Y12957300D03*
%TO.P,,fed82bbc-0042-406b-909a-d4c5d9903564__bc51c718-b85c-4d0b-86df-362323568623*%
X61510800Y-44446700D03*
%TO.P,,fed82bbc-0042-406b-909a-d4c5d9903564__bf0d1b37-8edc-4795-8a6f-bf34fedf45db*%
X66590800Y-46986700D03*
%TO.P,,fed82bbc-0042-406b-909a-d4c5d9903564__c07e81d3-9161-432a-b46b-85992841cc40*%
X43730800Y-44446700D03*
%TO.P,,fed82bbc-0042-406b-909a-d4c5d9903564__c15d76c8-6d6d-478e-a0d4-8e78d8034490*%
X38650800Y-46986700D03*
%TO.P,,fed82bbc-0042-406b-909a-d4c5d9903564__c17d49d1-14fb-4b9b-a730-88487f7f4d94*%
X25950800Y-19046700D03*
%TO.P,,fed82bbc-0042-406b-909a-d4c5d9903564__c31f3c49-3c10-4df1-a42f-77ac24208b7c*%
X74210800Y-26666700D03*
%TO.P,,fed82bbc-0042-406b-909a-d4c5d9903564__c662b082-cc89-4f61-8b2f-d66a438a484d*%
X74210800Y7877300D03*
%TO.P,,fed82bbc-0042-406b-909a-d4c5d9903564__c8a3e355-12ed-40bf-aec7-33604d946314*%
X74210800Y-34286700D03*
%TO.P,,fed82bbc-0042-406b-909a-d4c5d9903564__ce31b189-2403-46f2-b123-88c4550d2e42*%
X25950800Y-41652700D03*
%TO.P,,fed82bbc-0042-406b-909a-d4c5d9903564__ce67c05c-2868-4d9d-aaca-a2755b75aead*%
X25950800Y16513300D03*
%TO.P,,fed82bbc-0042-406b-909a-d4c5d9903564__d6a73eaa-f16e-4d43-a892-7f4dfae866e3*%
X74210800Y-24126700D03*
%TO.P,,fed82bbc-0042-406b-909a-d4c5d9903564__d9f5a82e-a608-45a0-bef2-fe7455245c80*%
X74210800Y-31746700D03*
%TO.P,,fed82bbc-0042-406b-909a-d4c5d9903564__db61739b-2f93-440a-8cce-1981acdb4cef*%
X71670800Y-46986700D03*
%TO.P,,fed82bbc-0042-406b-909a-d4c5d9903564__dbe2a7c8-62ff-46b3-84ef-591cd999e7c5*%
X25950800Y-24126700D03*
%TO.P,,fed82bbc-0042-406b-909a-d4c5d9903564__dde304a3-3b37-4367-98bf-e37a8b98d4eb*%
X25950800Y-31746700D03*
%TO.P,,fed82bbc-0042-406b-909a-d4c5d9903564__ea43dfb1-3b36-4ce4-936f-1ed439487275*%
X66590800Y-44446700D03*
%TO.P,,fed82bbc-0042-406b-909a-d4c5d9903564__ea6eb375-1ff6-440b-bc38-0cef6686f4b7*%
X25950800Y-26666700D03*
%TO.P,,fed82bbc-0042-406b-909a-d4c5d9903564__eae5f777-6923-42e9-978e-438bae4ad475*%
X74210800Y-11426700D03*
%TO.P,,fed82bbc-0042-406b-909a-d4c5d9903564__eb1380b4-048f-4a95-9787-e42736ded92d*%
X74210800Y10417300D03*
%TO.P,,fed82bbc-0042-406b-909a-d4c5d9903564__eb218dab-0abe-4579-afd5-053f8904f26f*%
X25950800Y11433300D03*
%TO.P,,fed82bbc-0042-406b-909a-d4c5d9903564__ec905da0-b7c9-4ab2-a3c2-abc35faa9200*%
X58970800Y-44446700D03*
%TO.P,,fed82bbc-0042-406b-909a-d4c5d9903564__f093a251-f83d-4c70-8d59-bae1e485e6aa*%
X64050800Y-46986700D03*
%TO.P,,fed82bbc-0042-406b-909a-d4c5d9903564__fe2e6192-04a8-4605-ab17-a7a501b94790*%
X25950800Y-3806700D03*
D17*
%TO.P,,250ce05b-026d-4288-8ad8-7e9b0def71e0*%
%TO.N,Net 2*%
X34638500Y-21586700D03*
%TO.P,,522a9453-13de-4d16-89d0-75019448788f*%
X34638400Y-30861200D03*
%TO.P,,7e1a6a92-c554-4b63-9830-3bf6d2e90f8b*%
X34638500Y-15592100D03*
%TO.P,,c7c33639-97f0-461f-8ec3-3352a08d8dc3*%
X32664000Y-33274100D03*
%TO.P,,d725fba7-0ff6-4cc2-ba94-449e284e9d5f*%
X36070400Y-13966700D03*
%TO.P,,de457d22-f93a-4136-a29b-b0dc2cd20360*%
X34638500Y-25263800D03*
%TO.P,,fde32b92-fe36-4bb7-a157-e079939d4036*%
X34638700Y-15592100D03*
%TO.P,,5b5074e1-c8b4-462b-aedb-b791053b43c7*%
%TO.N,Net 11*%
X13774700Y-30861200D03*
%TO.P,,13f32b17-f418-4967-853b-46760b087cb3*%
%TO.N,Net 16*%
X-57973800Y-17300600D03*
%TO.P,,2a35c8e3-1d16-45ed-bb6f-8845942ac235*%
X-55276800Y-17300600D03*
%TO.P,,7b434007-e927-43b6-a822-95611c8db129*%
X-44110500Y-26209500D03*
%TO.P,,28df77b0-9fe6-4247-aae9-3810ab6636aa*%
%TO.N,Net 1*%
X10422400Y-45834200D03*
%TO.P,,055336e8-90ab-410a-bb9b-8cb7f858df56*%
%TO.N,Net 8*%
X40490500Y-35505000D03*
%TO.P,,051680a3-8cf7-45e0-a4c0-64308fa36ab5*%
%TO.N,Net 12*%
X28428600Y-27676600D03*
%TO.P,,91063e4f-b0f0-46a0-876d-8edc0c35596b*%
X33570800Y-25263900D03*
%TO.P,,d6fd2c41-608e-4fd2-82db-413b60b965c8*%
X53890800Y-43060600D03*
%TO.P,,db8bdf4c-5cb2-4c86-bbfa-a4996cde2e76*%
X39969700Y-27161000D03*
%TO.P,,f3ac6a43-b9ed-4cbe-a64f-bf3ec9278445*%
X31764600Y-27676600D03*
%TO.P,,fa70f3c6-b261-4010-8b20-8a12a7392ec4*%
X36110800Y-27161000D03*
%TO.P,,4f0360cb-8cc2-460b-93c5-5a8467c514b9*%
%TO.N,Net 17*%
X-50956300Y-29876600D03*
%TO.P,,6fefa165-cdaf-44fd-8c1e-1ada1aef9adc*%
X-69084000Y-31471800D03*
%TO.P,,43f39ae5-40b2-45ce-bec1-3033a7f3dd5e*%
%TO.N,Net 9*%
X44138900Y-42698300D03*
%TO.P,,5e0095e9-82a3-4f43-8e03-5ee6297399cd*%
X31030800Y-42698400D03*
%TO.P,,90441264-6815-4a74-8d39-0217a592c604*%
X29075700Y-44798000D03*
%TO.P,,31bc02db-5599-45b9-8c84-f354bbaa87ae*%
%TO.N,Net 20*%
X1000100Y15497300D03*
%TO.P,,af64a72e-ee9c-4f72-b22a-d7a1cfec759a*%
X2582200Y17670700D03*
%TO.P,,cb950c14-2443-4fa8-8586-d165160f7bb8*%
X4103500Y19217700D03*
%TO.P,,dabcd3a4-06e8-4ce0-8bc7-9c686593d0d1*%
X5703100Y19053300D03*
%TO.P,,e82029a0-2a5c-405f-b12e-208e8e2dbecb*%
X13124200Y18037500D03*
%TO.P,,ea12f9de-7999-4238-aee3-bd7b0e119dac*%
X9795100Y16513300D03*
%TO.P,,02a6a0fa-f680-4320-b4cf-fefed58bfe79*%
%TO.N,Net 19*%
X6741400Y15214200D03*
%TO.P,,7e946286-1f25-401e-8b45-2d2f95f89244*%
X9197800Y26327500D03*
%TO.P,,2c3da505-1d64-4f84-b58e-cc366e641fac*%
%TO.N,Net 18*%
X-6248300Y21086100D03*
%TO.P,,6fa9376c-b64b-4404-bf2e-faeed82e20b4*%
X9036700Y6353300D03*
%TO.P,,e4dd94eb-9c25-4af6-8769-38999c7af0c0*%
X-6248300Y6353300D03*
%TO.P,,ed926ebc-e84d-475f-ac8e-67972a3d91e0*%
X-6248300Y17079300D03*
%TO.P,,4c155baa-f01a-406d-b33f-73df59847a3b*%
%TO.N,Net 3*%
X-12943700Y-11523200D03*
%TO.P,,54018603-d54e-4da5-8bec-1d5973ff4d44*%
X50357500Y-40636700D03*
%TO.P,,72b725ff-a850-4e67-945e-ba147317a587*%
X36110800Y-29206700D03*
%TO.P,,9a3fe9e1-7cdc-46f7-8535-d4db38d93109*%
X-12666300Y-16069000D03*
%TO.P,,ba80a596-5df8-432f-99b9-1c1b76a728e8*%
X6337100Y-23363400D03*
%TO.P,,ed8c2988-3538-42bd-a1e5-725a3cbe00da*%
X42756300Y-31746700D03*
%TO.P,,dbae1ff1-ae49-4361-b5bf-d1d7933cf490*%
%TO.N,Net 13*%
X45090600Y-40036800D03*
%TO.P,,f391c1c0-8b10-46f7-a9a5-b64dadbfd0d2*%
X-12993900Y-42142200D03*
%TO.P,,7b6a6679-33f6-4a4a-ad12-6fc79d07a681*%
%TO.N,Net 15*%
X-42453000Y-33935600D03*
%TO.P,,88ce7110-a1ae-4795-95fc-6f92e182136d*%
%TO.N,Net 10*%
X44528500Y-41495600D03*
%TO.P,,d9dcf3ee-c4b7-4181-9dc0-ea2b31b672fc*%
X-8468400Y-43251600D03*
%TO.P,,723f8cec-5975-4de2-bf3b-46ce856cf4f0*%
%TO.N,Net 21*%
X48752500Y18037300D03*
%TO.P,,d5eda88d-8bf1-444d-8018-fa55d6ba7909*%
X64372600Y30737300D03*
%TO.P,,6045dfe9-09f1-45e3-a29a-b872440b2d78*%
%TO.N,Net 6*%
X6741300Y21886100D03*
%TO.P,,927895a8-994c-46d1-942f-b9d7c2676398*%
X3155300Y29536400D03*
%TO.P,,c083c632-716f-44f4-84b5-774fcce2e8e9*%
X-4018500Y24460100D03*
%TO.P,,d6785a9a-0cd1-49ca-8bd8-494bc9298280*%
X-4237100Y23955500D03*
%TO.P,,7f51d6fe-3808-4277-8c55-a926f18fad2a*%
%TO.N,Net 18*%
X-3461900Y22117500D03*
%TD*%
D18*
%TO.N,Net 2*%
X-40355100Y-40036600D02*
X-40354900Y-40036400D01*
X-34470800Y-28324600D02*
X-37998800Y-24796600D01*
X35383000Y-12173200D02*
X37378400Y-12173200D01*
X37378400Y-14786800D02*
X37378400Y-12173200D01*
X34638300Y-30861200D02*
X34638500Y-25263800D01*
X31030800Y-46986700D02*
X30368600Y-46986700D01*
X-44110500Y-40036600D02*
X-40355100Y-40036600D01*
X-45822900Y-41749100D02*
X-44110500Y-40036700D01*
X36070400Y-13966700D02*
X36070400Y-14160100D01*
X34638500Y-12917800D02*
X35383100Y-12173200D01*
X-37998800Y-24796600D02*
X-40355000Y-24796600D01*
X27828600Y-44446700D02*
X-20064000Y-44446700D01*
X32664000Y-45353500D02*
X31030800Y-46986700D01*
X-34470800Y-35671400D02*
X-34470800Y-28324600D01*
X37378400Y-12173200D02*
X37378600Y-12173000D01*
X-38836000Y-40036600D02*
X-34470800Y-35671400D01*
X-23760500Y-48143200D02*
X-44666500Y-48143200D01*
X34638500Y-21586700D02*
X34638500Y-12917700D01*
X-44666600Y-48143100D02*
X-45823000Y-46986700D01*
X-20064100Y-44446700D02*
X-23760500Y-48143100D01*
X34638700Y-15592100D02*
X36573100Y-15592100D01*
X36573000Y-15592100D02*
X37378400Y-14786700D01*
X-45823000Y-46986700D02*
X-45823000Y-41749100D01*
X36070500Y-14160100D02*
X34638500Y-15592100D01*
X-40355000Y-40036600D02*
X-38836000Y-40036600D01*
X32664000Y-33274100D02*
X32664000Y-45353500D01*
X34638500Y-15592100D02*
X34638500Y-14913100D01*
X32663900Y-33274100D02*
X32664100Y-33273900D01*
X30368600Y-46986700D02*
X27828600Y-44446700D01*
%TO.N,Net 11*%
X13774600Y-30861200D02*
X13774800Y-30861000D01*
X-22178800Y-24796600D02*
X-18880400Y-24796600D01*
X-27655000Y-24796600D02*
X-22178800Y-24796600D01*
X13646700Y-30733200D02*
X13774700Y-30861200D01*
X-12943700Y-30733300D02*
X13646700Y-30733300D01*
X-18880300Y-24796700D02*
X-12943700Y-30733300D01*
%TO.N,Net 16*%
X-47652200Y-15821800D02*
X-73428600Y-15821800D01*
X-43144500Y-27175500D02*
X-44110500Y-26209500D01*
X-43144400Y-34707100D02*
X-43144400Y-27175500D01*
X-77627000Y-36064300D02*
X-77627000Y1724300D01*
X-77626900Y1724300D02*
X-75283700Y4067500D01*
X-57973800Y-17300600D02*
X-57973600Y-17300400D01*
X-40355000Y-37496600D02*
X-76194600Y-37496600D01*
X-40355000Y-37496600D02*
X-43144400Y-34707200D01*
X-55276800Y-17300600D02*
X-57973800Y-17300600D01*
X-76194600Y-37496600D02*
X-77627000Y-36064200D01*
X-41778400Y-37496600D02*
X-45823000Y-33452000D01*
X-73428700Y-15821700D02*
X-75283700Y-13966700D01*
X-44110500Y-26209500D02*
X-44110300Y-26209300D01*
X-45823000Y-17651000D02*
X-47652200Y-15821800D01*
X-45823000Y-33452000D02*
X-45823000Y-17651000D01*
X-40355000Y-37496600D02*
X-41778400Y-37496600D01*
X-75283700Y-13966700D02*
X-75283700Y4067500D01*
%TO.N,Net 1*%
X43730800Y-44798000D02*
X45090600Y-46157800D01*
X43730800Y-44446700D02*
X43730800Y-44798100D01*
X29625700Y-48667600D02*
X29075700Y-49217600D01*
X10422400Y-45834200D02*
X10422600Y-45834000D01*
X29075700Y-49217500D02*
X20577300Y-49217500D01*
X45090500Y-46157800D02*
X45090500Y-48667600D01*
X13805800Y-49217600D02*
X10422400Y-45834200D01*
X45090500Y-48667600D02*
X29625700Y-48667600D01*
X20577400Y-49217500D02*
X13805800Y-49217500D01*
%TO.N,Net 8*%
X43730800Y-46986700D02*
X42756200Y-46986700D01*
X40490500Y-36826700D02*
X40490500Y-35505100D01*
X42756300Y-46986700D02*
X42756300Y-39092500D01*
X42756300Y-39092500D02*
X40490500Y-36826700D01*
%TO.N,Net 12*%
X53890800Y-44446700D02*
X53890800Y-43060700D01*
X-14519100Y-33273900D02*
X-20456300Y-27336700D01*
X33570800Y-25870400D02*
X31764600Y-27676600D01*
X33570800Y-25263900D02*
X33570800Y-25870300D01*
X28428600Y-27676600D02*
X28428600Y-32673800D01*
X39969600Y-27161000D02*
X36110800Y-27161000D01*
X-20456400Y-27336600D02*
X-27655000Y-27336600D01*
X28428600Y-32673900D02*
X27828600Y-33273900D01*
X27828600Y-33273900D02*
X-14519000Y-33273900D01*
X31764500Y-27676700D02*
X31764700Y-27676500D01*
%TO.N,Net 17*%
X-69084000Y-31471800D02*
X-52551400Y-31471800D01*
X-50956300Y-29876600D02*
X-50956100Y-29876400D01*
X-52551500Y-31471800D02*
X-50956300Y-29876600D01*
%TO.N,Net 9*%
X45887300Y-44446700D02*
X44138900Y-42698300D01*
X29075700Y-44798000D02*
X29075900Y-44797800D01*
X46270800Y-44446700D02*
X45887200Y-44446700D01*
X44139000Y-42698400D02*
X44139200Y-42698200D01*
%TO.N,Net 20*%
X5703100Y19053300D02*
X5703300Y19053500D01*
X8243100Y16513300D02*
X5703100Y19053300D01*
X9795100Y16513300D02*
X8243100Y16513300D01*
X13491000Y17670700D02*
X13124200Y18037500D01*
X29040400Y18503300D02*
X28207800Y17670700D01*
X4103500Y19192100D02*
X2582100Y17670700D01*
X4103500Y19217700D02*
X4103500Y19192100D01*
X28207800Y17670700D02*
X13491000Y17670700D01*
X30269900Y18503200D02*
X29040300Y18503200D01*
%TO.N,Net 19*%
X9197800Y31671900D02*
X9197800Y26327500D01*
X4103500Y15214200D02*
X100100Y19217600D01*
X6741400Y15214200D02*
X4103600Y15214200D01*
X9197800Y26327500D02*
X9198000Y26327700D01*
X100100Y19217700D02*
X100100Y19986100D01*
%TO.N,Net 18*%
X-5611100Y24460100D02*
X-4237100Y23086100D01*
X-18031000Y23456100D02*
X-17027000Y24460100D01*
X25950800Y2875700D02*
X21808400Y-1266700D01*
X-2799900Y22686100D02*
X-2799900Y22686100D01*
X25950800Y3813300D02*
X25950800Y2875700D01*
X9036700Y6353300D02*
X9036900Y6353500D01*
X25950800Y3813300D02*
X25950800Y4389100D01*
X9036700Y3813300D02*
X-9436100Y22286100D01*
X23986700Y6353300D02*
X9036700Y6353300D01*
X25950800Y4389100D02*
X23986600Y6353300D01*
X-1550200Y-1266700D02*
X-18031000Y15214100D01*
X-9436100Y22286100D02*
X-4418500Y22286100D01*
X-18031000Y15214100D02*
X-18031000Y23456100D01*
X-6248300Y6353300D02*
X-6248300Y17079300D01*
X-17027000Y24460100D02*
X-6248200Y24460100D01*
X-4237100Y23086100D02*
X-2799900Y23086100D01*
X21808400Y-1266700D02*
X-1550200Y-1266700D01*
X-4418500Y22286100D02*
X-4018500Y22686100D01*
X25950800Y3813300D02*
X9036800Y3813300D01*
X-6248300Y24460100D02*
X-5611100Y24460100D01*
%TO.N,Net 3*%
X56430800Y-40636700D02*
X50357400Y-40636700D01*
X-17046500Y-7420400D02*
X-12943700Y-11523200D01*
X-22722800Y-7420400D02*
X-17046400Y-7420400D01*
X-12666300Y-16069000D02*
X-957300Y-16069000D01*
X42756400Y-31746700D02*
X38650800Y-31746700D01*
X70374000Y-40636700D02*
X56430800Y-40636700D01*
X6337100Y-23363400D02*
X6337300Y-23363200D01*
X-26203200Y-3940000D02*
X-22722800Y-7420400D01*
X-957300Y-16069000D02*
X6337100Y-23363400D01*
X74183900Y-44446700D02*
X70373900Y-40636700D01*
X74210800Y-44446700D02*
X74184000Y-44446700D01*
X38650800Y-31746700D02*
X36110800Y-29206700D01*
%TO.N,Net 13*%
X56430800Y-43503800D02*
X55279400Y-42352400D01*
X55279400Y-42352400D02*
X47406200Y-42352400D01*
X45090600Y-40036800D02*
X45090800Y-40036600D01*
X-12993800Y-42142200D02*
X-27220600Y-42142200D01*
X47406200Y-42352400D02*
X45090600Y-40036800D01*
X-27220600Y-42142200D02*
X-27655000Y-42576600D01*
X56430800Y-44446700D02*
X56430800Y-43503700D01*
%TO.N,Net 15*%
X-40355000Y-34956600D02*
X-41432000Y-34956600D01*
X-41432000Y-34956600D02*
X-42453000Y-33935600D01*
X-42453000Y-33935600D02*
X-42452800Y-33935400D01*
%TO.N,Net 22*%
X46625600Y41141500D02*
X9888200Y41141500D01*
X9888200Y41141500D02*
X9197800Y41831900D01*
X74210800Y28197300D02*
X59569800Y28197300D01*
X59569800Y28197300D02*
X46625600Y41141500D01*
%TO.N,Net 4*%
X28490800Y-24126700D02*
X25950800Y-21586700D01*
X46270800Y-31746700D02*
X38650800Y-24126700D01*
X74210800Y-29206700D02*
X58970800Y-29206700D01*
X22990900Y-21586700D02*
X15370900Y-13966700D01*
X-31283200Y-8273200D02*
X-31283200Y-3940000D01*
X15370900Y-13966700D02*
X-25589700Y-13966700D01*
X-25589700Y-13966600D02*
X-31283100Y-8273200D01*
X38650800Y-24126700D02*
X28490800Y-24126700D01*
X58970800Y-29206700D02*
X56430800Y-31746700D01*
X25950800Y-21586700D02*
X22991000Y-21586700D01*
X56430800Y-31746700D02*
X46270800Y-31746700D01*
%TO.N,Net 5*%
X57774200Y-34286700D02*
X44968400Y-34286700D01*
X27332000Y-25940600D02*
X26655200Y-25263800D01*
X-16832600Y-25263800D02*
X-33823200Y-8273200D01*
X44968400Y-34286700D02*
X36837000Y-34286700D01*
X28490800Y-25940600D02*
X27332000Y-25940600D01*
X36837000Y-34286700D02*
X28490800Y-25940500D01*
X26655200Y-25263800D02*
X-16832600Y-25263800D01*
X-33823200Y-8273200D02*
X-33823200Y-3940000D01*
X60314300Y-31746700D02*
X57774300Y-34286700D01*
X74210800Y-31746700D02*
X60314200Y-31746700D01*
%TO.N,Net 10*%
X48810800Y-43060600D02*
X46093600Y-43060600D01*
X44528500Y-41495600D02*
X44528700Y-41495400D01*
X-27654800Y-40036400D02*
X-27655000Y-40036600D01*
X-23199400Y-40036400D02*
X-27654800Y-40036400D01*
X-15079600Y-37496600D02*
X-22581200Y-37496600D01*
X-22581200Y-37496600D02*
X-22581200Y-39418200D01*
X-22581200Y-39418200D02*
X-23199400Y-40036400D01*
X46093500Y-43060600D02*
X44528500Y-41495600D01*
X-8468400Y-43251600D02*
X-9324600Y-43251600D01*
X-9324600Y-43251600D02*
X-15079600Y-37496600D01*
X48810800Y-44446800D02*
X48810800Y-43060600D01*
%TO.N,Net 21*%
X64372600Y30737300D02*
X64372800Y30737500D01*
X40895700Y18037300D02*
X40429800Y18503200D01*
X48752500Y18037300D02*
X40895800Y18037300D01*
X74210800Y30737300D02*
X64372600Y30737300D01*
%TO.N,Net 6*%
X-899900Y24460100D02*
X-899900Y23611100D01*
X74210800Y23117300D02*
X64372600Y23117300D01*
X6741300Y21486100D02*
X6741300Y21886100D01*
X23107400Y15214300D02*
X21808400Y16513300D01*
X21808400Y16513300D02*
X11714000Y16513300D01*
X30270000Y13973300D02*
X28207800Y13973300D01*
X31510700Y15214100D02*
X30269900Y13973300D01*
X-4418500Y24860100D02*
X-4018500Y24460100D01*
X66426100Y15214100D02*
X31510700Y15214100D01*
X11714100Y16513300D02*
X6741300Y21486100D01*
X-832500Y29536400D02*
X-4418500Y25950400D01*
X26966800Y15214300D02*
X23107400Y15214300D01*
X28207800Y13973300D02*
X26966800Y15214300D01*
X74210800Y22998900D02*
X66426000Y15214100D01*
X74210800Y23117300D02*
X74210800Y22998900D01*
X-390700Y24969300D02*
X-899900Y24460100D01*
X62520700Y24969300D02*
X-390700Y24969300D01*
X-4018500Y24174100D02*
X-4237100Y23955500D01*
X64372700Y23117300D02*
X62520700Y24969300D01*
X-4018500Y24460100D02*
X-4018500Y24174100D01*
X-4418500Y25950400D02*
X-4418500Y24860100D01*
X3155300Y29536400D02*
X-832500Y29536400D01*
%TO.N,Net 18*%
X-3461900Y22117500D02*
X-3461900Y21095500D01*
X-3461900Y21095500D02*
X-3452500Y21086100D01*
X-3452500Y21086100D02*
X-6248300Y21086100D01*
X-4018500Y22686100D02*
X-2799900Y22686100D01*
%TD*%
M02*
